SplineFontDB: 3.0
FontName: Geo-Oblique
FullName: Geo Oblique
FamilyName: Geo
Weight: Regular
Copyright: Copyright (c) 2000-2010, Ben Weiner (ben@readingtype.org.uk), with Reserved Font Name Geo.
Version: 001.2
ItalicAngle: -11
UnderlinePosition: -136
UnderlineWidth: 20
Ascent: 819
Descent: 205
sfntRevision: 0x00020000
LayerCount: 2
Layer: 0 1 "Back"  1
Layer: 1 1 "Fore"  0
XUID: [1021 496 529952750 9705648]
FSType: 0
OS2Version: 3
OS2_WeightWidthSlopeOnly: 0
OS2_UseTypoMetrics: 1
CreationTime: 1209331983
ModificationTime: 1290844568
PfmFamily: 17
TTFWeight: 500
TTFWidth: 5
LineGap: 92
VLineGap: 0
Panose: 2 0 6 3 0 0 0 0 0 0
OS2TypoAscent: 0
OS2TypoAOffset: 1
OS2TypoDescent: 0
OS2TypoDOffset: 1
OS2TypoLinegap: 92
OS2WinAscent: 0
OS2WinAOffset: 1
OS2WinDescent: 0
OS2WinDOffset: 1
HheadAscent: 0
HheadAOffset: 1
HheadDescent: 0
HheadDOffset: 1
OS2SubXSize: 666
OS2SubYSize: 717
OS2SubXOff: 27
OS2SubYOff: 143
OS2SupXSize: 666
OS2SupYSize: 717
OS2SupXOff: -93
OS2SupYOff: 492
OS2StrikeYSize: 50
OS2StrikeYPos: 264
OS2Vendor: 'PfEd'
OS2CodePages: 00000000.00940000
OS2UnicodeRanges: 8000002f.40000048.00000000.00000000
MarkAttachClasses: 1
DEI: 91125
TtTable: prep
PUSHW_1
 511
SCANCTRL
PUSHB_1
 1
SCANTYPE
SVTCA[y-axis]
MPPEM
PUSHB_1
 8
LT
IF
PUSHB_2
 1
 1
INSTCTRL
EIF
PUSHB_2
 70
 6
CALL
IF
POP
PUSHB_1
 16
EIF
MPPEM
PUSHB_1
 20
GT
IF
POP
PUSHB_1
 128
EIF
SCVTCI
PUSHB_1
 6
CALL
NOT
IF
EIF
PUSHB_1
 20
CALL
EndTTInstrs
TtTable: fpgm
PUSHB_1
 0
FDEF
PUSHB_1
 0
SZP0
MPPEM
PUSHB_1
 42
LT
IF
PUSHB_1
 74
SROUND
EIF
PUSHB_1
 0
SWAP
MIAP[rnd]
RTG
PUSHB_1
 6
CALL
IF
RTDG
EIF
MPPEM
PUSHB_1
 42
LT
IF
RDTG
EIF
DUP
MDRP[rp0,rnd,grey]
PUSHB_1
 1
SZP0
MDAP[no-rnd]
RTG
ENDF
PUSHB_1
 1
FDEF
DUP
MDRP[rp0,min,white]
PUSHB_1
 12
CALL
ENDF
PUSHB_1
 2
FDEF
MPPEM
GT
IF
RCVT
SWAP
EIF
POP
ENDF
PUSHB_1
 3
FDEF
ROUND[Black]
RTG
DUP
PUSHB_1
 64
LT
IF
POP
PUSHB_1
 64
EIF
ENDF
PUSHB_1
 4
FDEF
PUSHB_1
 6
CALL
IF
POP
SWAP
POP
ROFF
IF
MDRP[rp0,min,rnd,black]
ELSE
MDRP[min,rnd,black]
EIF
ELSE
MPPEM
GT
IF
IF

StartChar: exclam
Encoding: 33 33 3
Width: 239
GlyphClass: 2
Flags: W
LayerCount: 2
Fore
SplineSet
140 226 m 1,0,-1
 211 676 l 1,1,-1
 135 676 l 1,2,-1
 65 225 l 1,3,-1
 140 226 l 1,0,-1
104 0 m 1,4,-1
 125 133 l 1,5,-1
 49 133 l 1,6,-1
 29 0 l 1,7,-1
 104 0 l 1,4,-1
EndSplineSet
EndChar

StartChar: quotedbl
Encoding: 34 34 4
Width: 219
GlyphClass: 2
Flags: W
HStem: 481 195
LayerCount: 2
Fore
SplineSet
36 676 m 1,0,-1
 5 481 l 1,1,-1
 81 481 l 1,2,-1
 112 676 l 1,3,-1
 36 676 l 1,0,-1
138 676 m 1,4,-1
 108 481 l 1,5,-1
 183 481 l 1,6,-1
 214 676 l 1,7,-1
 138 676 l 1,4,-1
EndSplineSet
EndChar

StartChar: numbersign
Encoding: 35 35 5
Width: 419
GlyphClass: 2
Flags: W
HStem: 339 71<33 84 175 227 318 359> 493 70<57 109 200 252 343 384>
LayerCount: 2
Fore
SplineSet
239 410 m 1,0,-1
 252 493 l 1,1,-1
 188 493 l 1,2,-1
 175 410 l 1,3,-1
 239 410 l 1,0,-1
219 287 m 1,4,-1
 227 339 l 1,5,-1
 165 339 l 1,6,-1
 157 287 l 1,7,-1
 76 287 l 1,8,-1
 84 339 l 1,9,-1
 22 339 l 1,10,-1
 33 410 l 1,11,-1
 95 410 l 1,12,-1
 109 493 l 1,13,-1
 46 493 l 1,14,-1
 57 563 l 1,15,-1
 119 563 l 1,16,-1
 130 636 l 1,17,-1
 211 636 l 1,18,-1
 200 563 l 1,19,-1
 262 563 l 1,20,-1
 273 636 l 1,21,-1
 354 636 l 1,22,-1
 343 563 l 1,23,-1
 395 563 l 1,24,-1
 384 493 l 1,25,-1
 332 493 l 1,26,-1
 318 410 l 1,27,-1
 371 410 l 1,28,-1
 359 339 l 1,29,-1
 308 339 l 1,30,-1
 300 287 l 1,31,-1
 219 287 l 1,4,-1
EndSplineSet
EndChar

StartChar: dollar
Encoding: 36 36 6
Width: 481
GlyphClass: 2
Flags: W
HStem: 0 113<61 131> 0 75<131 166 249 293> 328 123<345 413> 376 75<183 225 308 345>
LayerCount: 2
Fore
SplineSet
249 75 m 1,0,-1
 293 75 l 1,1,-1
 308 170 l 1,2,-1
 265 176 l 1,3,-1
 249 75 l 1,0,-1
225 376 m 1,4,-1
 183 376 l 1,5,-1
 168 276 l 1,6,-1
 209 270 l 1,7,-1
 225 376 l 1,4,-1
327 563 m 1,8,-1
 308 451 l 1,9,-1
 432 451 l 1,10,-1
 413 328 l 1,11,-1
 337 328 l 1,12,-1
 345 376 l 1,13,-1
 297 376 l 1,14,-1
 279 260 l 1,15,-1
 397 243 l 1,16,-1
 359 1 l 1,17,-1
 238 1 l 1,18,-1
 224 -82 l 1,19,-1
 153 -82 l 1,20,-1
 166 0 l 1,21,-1
 44 0 l 1,22,-1
 61 113 l 1,23,-1
 137 113 l 1,24,-1
 131 75 l 1,25,-1
 177 75 l 1,26,-1
 196 187 l 1,27,-1
 76 205 l 1,28,-1
 115 451 l 1,29,-1
 237 451 l 1,30,-1
 255 563 l 1,31,-1
 327 563 l 1,8,-1
EndSplineSet
EndChar

StartChar: percent
Encoding: 37 37 7
Width: 538
GlyphClass: 2
Flags: W
HStem: 0 43<349 426> 164 45<368 444> 358 43<98 175> 522 45<118 195>
LayerCount: 2
Fore
SplineSet
446 589 m 1,0,-1
 16 4 l 1,1,-1
 76 -34 l 1,2,-1
 506 551 l 1,3,-1
 446 589 l 1,0,-1
34 358 m 1,4,-1
 67 567 l 1,5,-1
 257 567 l 1,6,-1
 224 358 l 1,7,-1
 34 358 l 1,4,-1
195 523 m 1,8,-1
 118 522 l 1,9,-1
 98 401 l 1,10,-1
 175 401 l 1,11,-1
 195 523 l 1,8,-1
284 0 m 1,12,-1
 316 209 l 1,13,-1
 507 209 l 1,14,-1
 474 0 l 1,15,-1
 284 0 l 1,12,-1
444 164 m 1,16,-1
 368 164 l 1,17,-1
 349 43 l 1,18,-1
 426 43 l 1,19,-1
 444 164 l 1,16,-1
EndSplineSet
EndChar

StartChar: ampersand
Encoding: 38 38 8
Width: 512
GlyphClass: 2
Flags: W
HStem: 0 77<129 270> 256 72<157 160 240 298 385 425> 502 71<267 357>
LayerCount: 2
Fore
SplineSet
398 410 m 1,0,-1
 385 328 l 1,1,-1
 436 328 l 1,2,-1
 425 257 l 1,3,-1
 374 257 l 1,4,-1
 334 0 l 1,5,-1
 37 0 l 1,6,-1
 88 328 l 1,7,-1
 160 328 l 1,8,-1
 199 573 l 1,9,-1
 369 573 l 1,10,-1
 357 502 l 1,11,-1
 267 502 l 1,12,-1
 240 328 l 1,13,-1
 309 328 l 1,14,-1
 323 410 l 1,15,-1
 398 410 l 1,0,-1
270 77 m 1,16,-1
 298 256 l 1,17,-1
 157 256 l 1,18,-1
 129 77 l 1,19,-1
 270 77 l 1,16,-1
EndSplineSet
EndChar

StartChar: quotesingle
Encoding: 39 39 9
Width: 116
GlyphClass: 2
Flags: W
HStem: 481 195
LayerCount: 2
Fore
SplineSet
36 676 m 1,0,-1
 5 481 l 1,1,-1
 81 481 l 1,2,-1
 112 676 l 1,3,-1
 36 676 l 1,0,-1
EndSplineSet
EndChar

StartChar: parenleft
Encoding: 40 40 10
Width: 239
GlyphClass: 2
Flags: W
HStem: -113 82<109 166> 594 82<207 278>
VStem: 19 272
LayerCount: 2
Fore
SplineSet
166 -113 m 1,0,-1
 19 -113 l 1,1,-1
 144 676 l 1,2,-1
 291 676 l 1,3,-1
 278 594 l 1,4,-1
 207 594 l 1,5,-1
 109 -31 l 1,6,-1
 179 -31 l 1,7,-1
 166 -113 l 1,0,-1
EndSplineSet
EndChar

StartChar: parenright
Encoding: 41 41 11
Width: 239
GlyphClass: 2
Flags: W
LayerCount: 2
Fore
SplineSet
19 -113 m 1,0,-1
 166 -113 l 1,1,-1
 291 676 l 1,2,-1
 144 676 l 1,3,-1
 131 594 l 1,4,-1
 202 594 l 1,5,-1
 103 -31 l 1,6,-1
 33 -31 l 1,7,-1
 19 -113 l 1,0,-1
EndSplineSet
EndChar

StartChar: asterisk
Encoding: 42 42 12
Width: 491
GlyphClass: 2
Flags: W
VStem: -2 321
LayerCount: 2
Fore
SplineSet
89 256 m 1,0,-1
 108 369 l 1,1,-1
 28 317 l 1,2,-1
 -2 389 l 1,3,-1
 86 427 l 1,4,-1
 12 481 l 1,5,-1
 63 543 l 1,6,-1
 128 502 l 1,7,-1
 146 614 l 1,8,-1
 218 614 l 1,9,-1
 200 502 l 1,10,-1
 279 543 l 1,11,-1
 319 478 l 1,12,-1
 229 427 l 1,13,-1
 305 389 l 1,14,-1
 243 317 l 1,15,-1
 179 369 l 1,16,-1
 161 256 l 1,17,-1
 89 256 l 1,0,-1
EndSplineSet
EndChar

StartChar: plus
Encoding: 43 43 13
Width: 491
GlyphClass: 2
Flags: W
HStem: 0 21G<164 249.22> 205 71<34 197 290 463> 431 20G<232.8 317> 431 20G<232.8 317>
LayerCount: 2
Fore
SplineSet
164 0 m 1,0,-1
 197 205 l 1,1,-1
 23 205 l 1,2,-1
 34 276 l 1,3,-1
 208 276 l 1,4,-1
 236 451 l 1,5,-1
 317 451 l 1,6,-1
 290 276 l 1,7,-1
 474 276 l 1,8,-1
 463 205 l 1,9,-1
 279 205 l 1,10,-1
 246 0 l 1,11,-1
 164 0 l 1,0,-1
EndSplineSet
EndChar

StartChar: comma
Encoding: 44 44 14
Width: 239
GlyphClass: 2
Flags: W
HStem: -82 205
VStem: 35 160
LayerCount: 2
Fore
SplineSet
35 -82 m 1,0,-1
 119 123 l 1,1,-1
 195 123 l 1,2,-1
 111 -82 l 1,3,-1
 35 -82 l 1,0,-1
EndSplineSet
EndChar

StartChar: hyphen
Encoding: 45 45 15
Width: 327
GlyphClass: 2
Flags: W
HStem: 205 71
LayerCount: 2
Fore
SplineSet
296 205 m 1,0,-1
 308 276 l 1,1,-1
 32 276 l 1,2,-1
 19 205 l 1,3,-1
 296 205 l 1,0,-1
EndSplineSet
EndChar

StartChar: period
Encoding: 46 46 16
Width: 239
GlyphClass: 2
Flags: W
HStem: 0 123
LayerCount: 2
Fore
SplineSet
92 123 m 1,0,-1
 72 0 l 1,1,-1
 147 0 l 1,2,-1
 168 123 l 1,3,-1
 92 123 l 1,0,-1
EndSplineSet
EndChar

StartChar: slash
Encoding: 47 47 17
Width: 239
GlyphClass: 2
Flags: W
LayerCount: 2
Fore
SplineSet
234 675 m 1,0,-1
 -66 -136 l 1,1,-1
 5 -153 l 1,2,-1
 305 658 l 1,3,-1
 234 675 l 1,0,-1
EndSplineSet
EndChar

StartChar: zero
Encoding: 48 48 18
Width: 512
GlyphClass: 2
Flags: W
HStem: 0 72<153 314> 376 75<201 362>
LayerCount: 2
Fore
SplineSet
61 0 m 1,0,-1
 133 451 l 1,1,-1
 451 451 l 1,2,-1
 379 0 l 1,3,-1
 61 0 l 1,0,-1
362 377 m 1,4,-1
 201 376 l 1,5,-1
 153 72 l 1,6,-1
 314 72 l 1,7,-1
 362 377 l 1,4,-1
EndSplineSet
EndChar

StartChar: one
Encoding: 49 49 19
Width: 512
GlyphClass: 2
Flags: W
HStem: 0 21G<245 324.149> 379 71<143 305>
VStem: 132 260
LayerCount: 2
Fore
SplineSet
321 0 m 1,0,-1
 245 0 l 1,1,-1
 305 379 l 1,2,-1
 132 379 l 1,3,-1
 143 450 l 1,4,-1
 392 451 l 1,5,-1
 321 0 l 1,0,-1
EndSplineSet
EndChar

StartChar: two
Encoding: 50 50 20
Width: 512
GlyphClass: 2
Flags: W
HStem: 1 74<195 379> 376 75<197 358>
LayerCount: 2
Fore
SplineSet
391 75 m 1,0,-1
 379 0 l 1,1,-1
 63 1 l 1,2,-1
 76 79 l 1,3,-1
 343 276 l 1,4,-1
 358 376 l 1,5,-1
 197 376 l 1,6,-1
 183 287 l 1,7,-1
 108 287 l 1,8,-1
 133 451 l 1,9,-1
 451 451 l 1,10,-1
 415 225 l 1,11,-1
 195 75 l 1,12,-1
 391 75 l 1,0,-1
EndSplineSet
EndChar

StartChar: three
Encoding: 51 51 21
Width: 512
GlyphClass: 2
Flags: W
LayerCount: 2
Fore
SplineSet
329 196 m 1,0,-1
 310 75 l 1,1,-1
 150 75 l 1,2,-1
 159 133 l 1,3,-1
 83 133 l 1,4,-1
 61 0 l 1,5,-1
 379 0 l 1,6,-1
 420 256 l 1,7,-1
 304 256 l 1,8,-1
 436 372 l 1,9,-1
 449 450 l 1,10,-1
 133 451 l 1,11,-1
 121 376 l 1,12,-1
 317 376 l 1,13,-1
 184 256 l 1,14,-1
 174 196 l 1,15,-1
 329 196 l 1,0,-1
EndSplineSet
EndChar

StartChar: four
Encoding: 52 52 22
Width: 512
GlyphClass: 2
Flags: W
HStem: 0 75<160 274 367 416> 431 20G<330.677 426> 431 20G<330.677 426>
LayerCount: 2
Fore
SplineSet
287 75 m 1,0,-1
 322 294 l 1,1,-1
 160 75 l 1,2,-1
 287 75 l 1,0,-1
338 -102 m 1,3,-1
 258 -102 l 1,4,-1
 274 0 l 1,5,-1
 49 1 l 1,6,-1
 61 79 l 1,7,-1
 346 451 l 1,8,-1
 426 451 l 1,9,-1
 367 75 l 1,10,-1
 428 75 l 1,11,-1
 416 0 l 1,12,-1
 354 0 l 1,13,-1
 338 -102 l 1,3,-1
EndSplineSet
EndChar

StartChar: five
Encoding: 53 53 23
Width: 512
GlyphClass: 2
Flags: W
LayerCount: 2
Fore
SplineSet
329 196 m 1,0,-1
 310 75 l 1,1,-1
 150 75 l 1,2,-1
 159 133 l 1,3,-1
 83 133 l 1,4,-1
 61 0 l 1,5,-1
 379 0 l 1,6,-1
 423 276 l 1,7,-1
 194 276 l 1,8,-1
 209 372 l 1,9,-1
 438 373 l 1,10,-1
 451 450 l 1,11,-1
 133 450 l 1,12,-1
 92 196 l 1,13,-1
 329 196 l 1,0,-1
EndSplineSet
EndChar

StartChar: six
Encoding: 54 54 24
Width: 512
GlyphClass: 2
Flags: W
HStem: 0 75<150 310> 196 80<181 329> 372 78<197 438>
LayerCount: 2
Fore
SplineSet
133 450 m 1,0,-1
 451 450 l 1,1,-1
 438 373 l 1,2,-1
 197 372 l 1,3,-1
 181 276 l 1,4,-1
 423 276 l 1,5,-1
 379 0 l 1,6,-1
 61 0 l 1,7,-1
 133 450 l 1,0,-1
329 196 m 1,8,-1
 168 196 l 1,9,-1
 150 75 l 1,10,-1
 310 75 l 1,11,-1
 329 196 l 1,8,-1
EndSplineSet
EndChar

StartChar: seven
Encoding: 55 55 25
Width: 512
GlyphClass: 2
Flags: W
LayerCount: 2
Fore
SplineSet
437 372 m 1,0,-1
 450 450 l 1,1,-1
 134 450 l 1,2,-1
 122 372 l 1,3,-1
 349 372 l 1,4,-1
 114 1 l 1,5,-1
 224 0 l 1,6,-1
 437 372 l 1,0,-1
EndSplineSet
EndChar

StartChar: eight
Encoding: 56 56 26
Width: 512
GlyphClass: 2
Flags: W
HStem: 1 77<155 315> 174 81<183 331> 376 75<202 362>
LayerCount: 2
Fore
SplineSet
183 255 m 1,0,-1
 344 255 l 1,1,-1
 362 376 l 1,2,-1
 202 376 l 1,3,-1
 183 255 l 1,0,-1
170 174 m 1,4,-1
 155 78 l 1,5,-1
 315 79 l 1,6,-1
 331 174 l 1,7,-1
 170 174 l 1,4,-1
133 451 m 1,8,-1
 451 451 l 1,9,-1
 379 0 l 1,10,-1
 61 1 l 1,11,-1
 133 451 l 1,8,-1
EndSplineSet
EndChar

StartChar: nine
Encoding: 57 57 27
Width: 512
GlyphClass: 2
Flags: W
HStem: 1 77<74 315> 174 81<183 331> 376 75<202 362>
LayerCount: 2
Fore
SplineSet
379 0 m 1,0,-1
 61 1 l 1,1,-1
 74 78 l 1,2,-1
 315 79 l 1,3,-1
 331 174 l 1,4,-1
 89 174 l 1,5,-1
 133 451 l 1,6,-1
 451 451 l 1,7,-1
 379 0 l 1,0,-1
183 255 m 1,8,-1
 344 255 l 1,9,-1
 362 376 l 1,10,-1
 202 376 l 1,11,-1
 183 255 l 1,8,-1
EndSplineSet
EndChar

StartChar: colon
Encoding: 58 58 28
Width: 239
GlyphClass: 2
Flags: W
LayerCount: 2
Fore
SplineSet
66 123 m 1,0,-1
 46 0 l 1,1,-1
 122 0 l 1,2,-1
 141 123 l 1,3,-1
 66 123 l 1,0,-1
118 451 m 1,4,-1
 98 328 l 1,5,-1
 174 328 l 1,6,-1
 194 451 l 1,7,-1
 118 451 l 1,4,-1
EndSplineSet
EndChar

StartChar: semicolon
Encoding: 59 59 29
Width: 239
GlyphClass: 2
Flags: W
LayerCount: 2
Fore
SplineSet
124 451 m 1,0,-1
 104 328 l 1,1,-1
 180 328 l 1,2,-1
 200 451 l 1,3,-1
 124 451 l 1,0,-1
9 -82 m 1,4,-1
 92 123 l 1,5,-1
 168 123 l 1,6,-1
 85 -82 l 1,7,-1
 9 -82 l 1,4,-1
EndSplineSet
EndChar

StartChar: less
Encoding: 60 60 30
Width: 512
GlyphClass: 2
Flags: W
LayerCount: 2
Fore
SplineSet
10 236 m 1,0,-1
 475 467 l 1,1,-1
 527 399 l 1,2,-1
 177 236 l 1,3,-1
 476 72 l 1,4,-1
 401 4 l 1,5,-1
 10 236 l 1,0,-1
EndSplineSet
EndChar

StartChar: equal
Encoding: 61 61 31
Width: 491
GlyphClass: 2
Flags: W
HStem: 123 194
LayerCount: 2
Fore
SplineSet
470 246 m 1,0,-1
 481 317 l 1,1,-1
 41 317 l 1,2,-1
 30 246 l 1,3,-1
 470 246 l 1,0,-1
451 123 m 1,4,-1
 462 195 l 1,5,-1
 22 195 l 1,6,-1
 10 123 l 1,7,-1
 451 123 l 1,4,-1
EndSplineSet
EndChar

StartChar: greater
Encoding: 62 62 32
Width: 512
GlyphClass: 2
Flags: W
LayerCount: 2
Fore
SplineSet
502 236 m 1,0,-1
 111 467 l 1,1,-1
 36 399 l 1,2,-1
 335 236 l 1,3,-1
 -15 72 l 1,4,-1
 37 4 l 1,5,-1
 502 236 l 1,0,-1
EndSplineSet
EndChar

StartChar: question
Encoding: 63 63 33
Width: 481
GlyphClass: 2
Flags: W
HStem: 287 70<257 330> 561 74<132 362>
VStem: 120 327
LayerCount: 2
Fore
SplineSet
132 635 m 1,0,-1
 447 635 l 1,1,-1
 392 287 l 1,2,-1
 257 287 l 1,3,-1
 243 195 l 1,4,-1
 165 195 l 1,5,-1
 190 357 l 1,6,-1
 330 357 l 1,7,-1
 362 561 l 1,8,-1
 120 561 l 1,9,-1
 132 635 l 1,0,-1
154 123 m 1,10,-1
 134 0 l 1,11,-1
 210 0 l 1,12,-1
 229 123 l 1,13,-1
 154 123 l 1,10,-1
EndSplineSet
EndChar

StartChar: at
Encoding: 64 64 34
Width: 583
GlyphClass: 2
Flags: W
HStem: -154 80<128 454> 0 74<309 410> 193 73<329 429> 379 72<200 459>
LayerCount: 2
Fore
SplineSet
454 -154 m 1,0,-1
 34 -154 l 1,1,-1
 130 451 l 1,2,-1
 550 451 l 1,3,-1
 478 0 l 1,4,-1
 224 0 l 1,5,-1
 266 266 l 1,6,-1
 440 266 l 1,7,-1
 459 379 l 1,8,-1
 200 379 l 1,9,-1
 128 -74 l 1,10,-1
 467 -74 l 1,11,-1
 454 -154 l 1,0,-1
410 74 m 1,12,-1
 429 193 l 1,13,-1
 329 193 l 1,14,-1
 309 74 l 1,15,-1
 410 74 l 1,12,-1
EndSplineSet
EndChar

StartChar: A
Encoding: 65 65 35
Width: 481
GlyphClass: 2
Flags: W
HStem: 0 21G<37 116.125 274 357.141> 256 72<164 314> 502 71<191 353>
LayerCount: 2
Fore
SplineSet
191 502 m 1,0,-1
 164 328 l 1,1,-1
 326 328 l 1,2,-1
 353 502 l 1,3,-1
 191 502 l 1,0,-1
354 0 m 1,4,-1
 274 0 l 1,5,-1
 314 256 l 1,6,-1
 153 256 l 1,7,-1
 113 0 l 1,8,-1
 37 0 l 1,9,-1
 127 573 l 1,10,-1
 444 573 l 1,11,-1
 354 0 l 1,4,-1
EndSplineSet
EndChar

StartChar: B
Encoding: 66 66 36
Width: 481
GlyphClass: 2
Flags: W
HStem: 0 77<125 287> 266 72<166 287> 502 71<191 312>
LayerCount: 2
Fore
SplineSet
191 502 m 1,0,-1
 166 338 l 1,1,-1
 287 338 l 1,2,-1
 312 502 l 1,3,-1
 191 502 l 1,0,-1
37 0 m 1,4,-1
 127 573 l 1,5,-1
 403 573 l 1,6,-1
 367 338 l 1,7,-1
 408 338 l 1,8,-1
 354 0 l 1,9,-1
 37 0 l 1,4,-1
125 77 m 1,10,-1
 287 77 l 1,11,-1
 316 266 l 1,12,-1
 155 266 l 1,13,-1
 125 77 l 1,10,-1
EndSplineSet
EndChar

StartChar: C
Encoding: 67 67 37
Width: 481
GlyphClass: 2
Flags: W
HStem: 0 72<128 346> 499 74<196 357>
LayerCount: 2
Fore
SplineSet
357 499 m 1,0,-1
 196 499 l 1,1,-1
 128 72 l 1,2,-1
 357 72 l 1,3,-1
 346 0 l 1,4,-1
 37 0 l 1,5,-1
 127 573 l 1,6,-1
 444 573 l 1,7,-1
 419 410 l 1,8,-1
 343 410 l 1,9,-1
 357 499 l 1,0,-1
EndSplineSet
EndChar

StartChar: D
Encoding: 68 68 38
Width: 481
GlyphClass: 2
Flags: W
HStem: 0 78<125 252> 501 72<191 323>
LayerCount: 2
Fore
SplineSet
125 78 m 1,0,-1
 256 78 l 1,1,-1
 280 102 l 1,2,-1
 339 471 l 1,3,-1
 323 501 l 1,4,-1
 191 501 l 1,5,-1
 125 78 l 1,0,-1
37 0 m 1,6,-1
 127 573 l 1,7,-1
 352 573 l 1,8,-1
 424 440 l 1,9,-1
 374 123 l 1,10,-1
 252 0 l 1,11,-1
 37 0 l 1,6,-1
EndSplineSet
EndChar

StartChar: E
Encoding: 69 69 39
Width: 481
GlyphClass: 2
Flags: W
HStem: 0 78<125 354> 306 72<172 402> 502 71<191 433>
LayerCount: 2
Fore
SplineSet
367 78 m 1,0,-1
 354 0 l 1,1,-1
 37 0 l 1,2,-1
 127 573 l 1,3,-1
 444 574 l 1,4,-1
 433 502 l 1,5,-1
 191 502 l 1,6,-1
 172 378 l 1,7,-1
 414 378 l 1,8,-1
 402 306 l 1,9,-1
 161 306 l 1,10,-1
 125 78 l 1,11,-1
 367 78 l 1,0,-1
EndSplineSet
EndChar

StartChar: F
Encoding: 70 70 40
Width: 481
GlyphClass: 2
Flags: W
HStem: 0 21G<37 116.137> 306 72<172 402> 502 71<191 433>
LayerCount: 2
Fore
SplineSet
113 0 m 1,0,-1
 37 0 l 1,1,-1
 127 573 l 1,2,-1
 444 574 l 1,3,-1
 433 502 l 1,4,-1
 191 502 l 1,5,-1
 172 378 l 1,6,-1
 414 378 l 1,7,-1
 402 306 l 1,8,-1
 161 306 l 1,9,-1
 113 0 l 1,0,-1
EndSplineSet
EndChar

StartChar: G
Encoding: 71 71 41
Width: 481
GlyphClass: 2
Flags: W
HStem: 0 72<128 289> 308 71<240 326> 498 75<196 433>
LayerCount: 2
Fore
SplineSet
240 379 m 1,0,-1
 414 379 l 1,1,-1
 354 0 l 1,2,-1
 37 0 l 1,3,-1
 127 573 l 1,4,-1
 444 573 l 1,5,-1
 433 498 l 1,6,-1
 196 498 l 1,7,-1
 128 72 l 1,8,-1
 289 72 l 1,9,-1
 326 308 l 1,10,-1
 228 308 l 1,11,-1
 240 379 l 1,0,-1
EndSplineSet
EndChar

StartChar: H
Encoding: 72 72 42
Width: 481
GlyphClass: 2
Flags: W
LayerCount: 2
Fore
SplineSet
334 379 m 1,0,-1
 172 379 l 1,1,-1
 203 573 l 1,2,-1
 127 573 l 1,3,-1
 37 0 l 1,4,-1
 113 0 l 1,5,-1
 161 307 l 1,6,-1
 323 307 l 1,7,-1
 274 0 l 1,8,-1
 354 0 l 1,9,-1
 444 573 l 1,10,-1
 365 573 l 1,11,-1
 334 379 l 1,0,-1
EndSplineSet
EndChar

StartChar: I
Encoding: 73 73 43
Width: 324
GlyphClass: 2
Flags: W
HStem: 0 74<24 90 166 228> 500 73<96 158 233 302>
VStem: 12 301
LayerCount: 2
Fore
SplineSet
158 500 m 1,0,-1
 85 500 l 1,1,-1
 96 573 l 1,2,-1
 313 573 l 1,3,-1
 302 500 l 1,4,-1
 233 500 l 1,5,-1
 166 74 l 1,6,-1
 240 74 l 1,7,-1
 228 0 l 1,8,-1
 12 0 l 1,9,-1
 24 74 l 1,10,-1
 90 74 l 1,11,-1
 158 500 l 1,0,-1
EndSplineSet
EndChar

StartChar: J
Encoding: 74 74 44
Width: 230
GlyphClass: 2
Flags: W
HStem: -154 74<-46 56> 553 20G<156.815 237>
VStem: -57 294
LayerCount: 2
Fore
SplineSet
160 573 m 1,0,-1
 237 573 l 1,1,-1
 122 -154 l 1,2,-1
 -57 -154 l 1,3,-1
 -46 -80 l 1,4,-1
 56 -80 l 1,5,-1
 160 573 l 1,0,-1
EndSplineSet
EndChar

StartChar: K
Encoding: 75 75 45
Width: 481
GlyphClass: 2
Flags: W
LayerCount: 2
Fore
SplineSet
385 0 m 1,0,-1
 232 302 l 1,1,-1
 465 573 l 1,2,-1
 356 573 l 1,3,-1
 164 328 l 1,4,-1
 203 573 l 1,5,-1
 127 573 l 1,6,-1
 37 0 l 1,7,-1
 113 0 l 1,8,-1
 153 256 l 1,9,-1
 168 256 l 1,10,-1
 267 0 l 1,11,-1
 385 0 l 1,0,-1
EndSplineSet
EndChar

StartChar: L
Encoding: 76 76 46
Width: 481
GlyphClass: 2
Flags: W
HStem: 0 78<125 354> 554 20G<127 199.855>
VStem: 37 330
LayerCount: 2
Fore
SplineSet
125 78 m 1,0,-1
 367 78 l 1,1,-1
 354 0 l 1,2,-1
 37 0 l 1,3,-1
 127 573 l 1,4,-1
 203 574 l 1,5,-1
 125 78 l 1,0,-1
EndSplineSet
EndChar

StartChar: M
Encoding: 77 77 47
Width: 716
GlyphClass: 2
Flags: W
HStem: 0 21G<37 116.108 272 357.147 510 593.141> 502 71<191 351 433 589>
LayerCount: 2
Fore
SplineSet
354 0 m 1,0,-1
 272 0 l 1,1,-1
 351 502 l 1,2,-1
 191 502 l 1,3,-1
 113 0 l 1,4,-1
 37 0 l 1,5,-1
 127 573 l 1,6,-1
 680 573 l 1,7,-1
 590 0 l 1,8,-1
 510 0 l 1,9,-1
 589 502 l 1,10,-1
 433 502 l 1,11,-1
 354 0 l 1,0,-1
EndSplineSet
EndChar

StartChar: N
Encoding: 78 78 48
Width: 481
GlyphClass: 2
Flags: W
LayerCount: 2
Fore
SplineSet
200 574 m 1,0,-1
 127 573 l 1,1,-1
 37 0 l 1,2,-1
 113 0 l 1,3,-1
 169 358 l 1,4,-1
 294 0 l 1,5,-1
 354 0 l 1,6,-1
 444 573 l 1,7,-1
 365 573 l 1,8,-1
 314 256 l 1,9,-1
 200 574 l 1,0,-1
EndSplineSet
EndChar

StartChar: O
Encoding: 79 79 49
Width: 481
GlyphClass: 2
Flags: W
HStem: 0 78<125 287> 501 72<191 353>
LayerCount: 2
Fore
SplineSet
125 78 m 1,0,-1
 287 78 l 1,1,-1
 353 501 l 1,2,-1
 191 501 l 1,3,-1
 125 78 l 1,0,-1
37 0 m 1,4,-1
 127 573 l 1,5,-1
 444 573 l 1,6,-1
 354 0 l 1,7,-1
 37 0 l 1,4,-1
EndSplineSet
EndChar

StartChar: P
Encoding: 80 80 50
Width: 460
GlyphClass: 2
Flags: W
HStem: 0 21G<37 117.047> 256 72<164 305> 502 71<191 333>
LayerCount: 2
Fore
SplineSet
374 256 m 1,0,-1
 153 256 l 1,1,-1
 114 0 l 1,2,-1
 37 0 l 1,3,-1
 127 573 l 1,4,-1
 424 573 l 1,5,-1
 374 256 l 1,0,-1
305 328 m 1,6,-1
 333 502 l 1,7,-1
 191 502 l 1,8,-1
 164 328 l 1,9,-1
 305 328 l 1,6,-1
EndSplineSet
EndChar

StartChar: Q
Encoding: 81 81 51
Width: 481
GlyphClass: 2
Flags: W
HStem: 0 78<137 213 289 299> 501 72<204 366>
LayerCount: 2
Fore
SplineSet
264 -154 m 1,0,-1
 188 -154 l 1,1,-1
 213 0 l 1,2,-1
 49 0 l 1,3,-1
 139 573 l 1,4,-1
 457 573 l 1,5,-1
 367 0 l 1,6,-1
 289 0 l 1,7,-1
 264 -154 l 1,0,-1
299 78 m 1,8,-1
 366 502 l 1,9,-1
 204 501 l 1,10,-1
 137 78 l 1,11,-1
 299 78 l 1,8,-1
EndSplineSet
EndChar

StartChar: R
Encoding: 82 82 52
Width: 481
GlyphClass: 2
Flags: W
HStem: 0 21G<37 117.047 277.188 385> 256 72<164 185 286 305> 502 71<191 333>
LayerCount: 2
Fore
SplineSet
385 0 m 1,0,-1
 285 0 l 1,1,-1
 185 256 l 1,2,-1
 153 256 l 1,3,-1
 114 0 l 1,4,-1
 37 0 l 1,5,-1
 127 573 l 1,6,-1
 424 573 l 1,7,-1
 374 256 l 1,8,-1
 286 256 l 1,9,-1
 385 0 l 1,0,-1
305 328 m 1,10,-1
 333 502 l 1,11,-1
 191 502 l 1,12,-1
 164 328 l 1,13,-1
 305 328 l 1,10,-1
EndSplineSet
EndChar

StartChar: S
Encoding: 83 83 53
Width: 481
GlyphClass: 2
Flags: W
LayerCount: 2
Fore
SplineSet
124 75 m 1,0,-1
 138 164 l 1,1,-1
 62 164 l 1,2,-1
 37 0 l 1,3,-1
 352 1 l 1,4,-1
 390 243 l 1,5,-1
 176 379 l 1,6,-1
 196 499 l 1,7,-1
 357 499 l 1,8,-1
 343 410 l 1,9,-1
 419 410 l 1,10,-1
 444 573 l 1,11,-1
 127 573 l 1,12,-1
 85 307 l 1,13,-1
 301 170 l 1,14,-1
 286 75 l 1,15,-1
 124 75 l 1,0,-1
EndSplineSet
EndChar

StartChar: T
Encoding: 84 84 54
Width: 481
GlyphClass: 2
Flags: W
HStem: 0 21G<160 239.12> 500 73<126 239 314 433>
VStem: 115 329
LayerCount: 2
Fore
SplineSet
236 0 m 1,0,-1
 160 0 l 1,1,-1
 239 500 l 1,2,-1
 115 500 l 1,3,-1
 126 573 l 1,4,-1
 444 573 l 1,5,-1
 433 500 l 1,6,-1
 314 500 l 1,7,-1
 236 0 l 1,0,-1
EndSplineSet
EndChar

StartChar: U
Encoding: 85 85 55
Width: 481
GlyphClass: 2
Flags: W
HStem: 0 72<124 286> 553 20G<123.859 203 361.846 444>
LayerCount: 2
Fore
SplineSet
444 573 m 1,0,-1
 354 0 l 1,1,-1
 37 0 l 1,2,-1
 127 573 l 1,3,-1
 203 573 l 1,4,-1
 124 72 l 1,5,-1
 286 72 l 1,6,-1
 365 573 l 1,7,-1
 444 573 l 1,0,-1
EndSplineSet
EndChar

StartChar: V
Encoding: 86 86 56
Width: 450
GlyphClass: 2
Flags: W
HStem: 0 82<176 205> 553 20G<86 182 347.931 455>
VStem: 86 96<230.728 573> 98 78<82 342.272>
LayerCount: 2
Fore
SplineSet
455 573 m 1,0,-1
 262 0 l 1,1,-1
 98 0 l 1,2,-1
 86 573 l 1,3,-1
 182 573 l 1,4,-1
 176 82 l 1,5,-1
 205 82 l 1,6,-1
 354 573 l 1,7,-1
 455 573 l 1,0,-1
EndSplineSet
EndChar

StartChar: W
Encoding: 87 87 57
Width: 716
GlyphClass: 2
Flags: W
HStem: 0 72<128 284 366 525> 553 20G<123.859 207 358.886 444 600.846 680>
LayerCount: 2
Fore
SplineSet
362 573 m 1,0,-1
 444 573 l 1,1,-1
 366 72 l 1,2,-1
 525 72 l 1,3,-1
 604 573 l 1,4,-1
 680 573 l 1,5,-1
 590 0 l 1,6,-1
 37 0 l 1,7,-1
 127 573 l 1,8,-1
 207 573 l 1,9,-1
 128 72 l 1,10,-1
 284 72 l 1,11,-1
 362 573 l 1,0,-1
EndSplineSet
EndChar

StartChar: X
Encoding: 88 88 58
Width: 481
GlyphClass: 2
Flags: W
HStem: 0 21G<-14 102.312 290.938 406> 553 20G<86 196.51 365.122 485>
LayerCount: 2
Fore
SplineSet
406 0 m 1,0,-1
 295 0 l 1,1,-1
 243 256 l 1,2,-1
 224 256 l 1,3,-1
 92 0 l 1,4,-1
 -14 0 l 1,5,-1
 153 307 l 1,6,-1
 86 573 l 1,7,-1
 193 573 l 1,8,-1
 236 328 l 1,9,-1
 254 328 l 1,10,-1
 375 573 l 1,11,-1
 485 573 l 1,12,-1
 335 307 l 1,13,-1
 406 0 l 1,0,-1
EndSplineSet
EndChar

StartChar: Y
Encoding: 89 89 59
Width: 481
GlyphClass: 2
Flags: W
HStem: 0 72<48 286> 184 74<154 303> 553 20G<125.864 203 361.825 444>
LayerCount: 2
Fore
SplineSet
444 573 m 1,0,-1
 354 0 l 1,1,-1
 37 0 l 1,2,-1
 48 72 l 1,3,-1
 286 72 l 1,4,-1
 303 184 l 1,5,-1
 68 184 l 1,6,-1
 129 573 l 1,7,-1
 203 573 l 1,8,-1
 154 258 l 1,9,-1
 315 258 l 1,10,-1
 365 573 l 1,11,-1
 444 573 l 1,0,-1
EndSplineSet
EndChar

StartChar: Z
Encoding: 90 90 60
Width: 481
GlyphClass: 2
Flags: W
HStem: 0 72<148 346> 499 74<127 353>
LayerCount: 2
Fore
SplineSet
148 72 m 1,0,-1
 357 72 l 1,1,-1
 346 0 l 1,2,-1
 37 0 l 1,3,-1
 48 72 l 1,4,-1
 353 499 l 1,5,-1
 116 499 l 1,6,-1
 127 573 l 1,7,-1
 444 573 l 1,8,-1
 432 496 l 1,9,-1
 148 72 l 1,0,-1
EndSplineSet
EndChar

StartChar: bracketleft
Encoding: 91 91 61
Width: 228
GlyphClass: 2
Flags: W
HStem: -195 82<19 180> 594 82<132 305>
LayerCount: 2
Fore
SplineSet
180 -195 m 1,0,-1
 -69 -195 l 1,1,-1
 69 676 l 1,2,-1
 317 676 l 1,3,-1
 305 594 l 1,4,-1
 132 594 l 1,5,-1
 19 -113 l 1,6,-1
 193 -113 l 1,7,-1
 180 -195 l 1,0,-1
EndSplineSet
EndChar

StartChar: backslash
Encoding: 92 92 62
Width: 239
GlyphClass: 2
Flags: W
HStem: 655 20G<59 137.085>
VStem: 59 121
LayerCount: 2
Fore
SplineSet
136 675 m 1,0,-1
 180 -136 l 1,1,-1
 103 -153 l 1,2,-1
 59 658 l 1,3,-1
 136 675 l 1,0,-1
EndSplineSet
EndChar

StartChar: bracketright
Encoding: 93 93 63
Width: 228
GlyphClass: 2
Flags: W
LayerCount: 2
Fore
SplineSet
-89 -195 m 1,0,-1
 160 -195 l 1,1,-1
 297 676 l 1,2,-1
 48 676 l 1,3,-1
 36 594 l 1,4,-1
 209 594 l 1,5,-1
 96 -113 l 1,6,-1
 -77 -113 l 1,7,-1
 -89 -195 l 1,0,-1
EndSplineSet
EndChar

StartChar: asciicircum
Encoding: 94 94 64
Width: 481
GlyphClass: 2
Flags: W
HStem: 487 193
VStem: 79 278
LayerCount: 2
Fore
SplineSet
241 680 m 1,0,-1
 357 541 l 1,1,-1
 294 487 l 1,2,-1
 224 580 l 1,3,-1
 126 487 l 1,4,-1
 79 541 l 1,5,-1
 241 680 l 1,0,-1
EndSplineSet
EndChar

StartChar: underscore
Encoding: 95 95 65
Width: 491
GlyphClass: 2
Flags: W
HStem: -113 72
LayerCount: 2
Fore
SplineSet
460 -113 m 1,0,-1
 472 -41 l 1,1,-1
 32 -41 l 1,2,-1
 19 -113 l 1,3,-1
 460 -113 l 1,0,-1
EndSplineSet
EndChar

StartChar: grave
Encoding: 96 96 66
Width: 481
GlyphClass: 2
Flags: W
HStem: 481 195
VStem: 88 248
LayerCount: 2
Fore
SplineSet
153 676 m 1,0,-1
 336 543 l 1,1,-1
 271 481 l 1,2,-1
 88 614 l 1,3,-1
 153 676 l 1,0,-1
EndSplineSet
EndChar

StartChar: a
Encoding: 97 97 67
Width: 481
GlyphClass: 2
Flags: W
HStem: 0 74<134 296> 193 73<153 314> 379 72<118 344>
LayerCount: 2
Fore
SplineSet
326 266 m 1,0,-1
 344 379 l 1,1,-1
 106 379 l 1,2,-1
 118 451 l 1,3,-1
 435 451 l 1,4,-1
 364 0 l 1,5,-1
 48 0 l 1,6,-1
 90 266 l 1,7,-1
 326 266 l 1,0,-1
314 193 m 1,8,-1
 153 193 l 1,9,-1
 134 74 l 1,10,-1
 296 74 l 1,11,-1
 314 193 l 1,8,-1
EndSplineSet
EndChar

StartChar: b
Encoding: 98 98 68
Width: 481
GlyphClass: 2
Flags: W
HStem: 0 74<116 278> 379 72<175 326> 656 20G<131.864 211>
LayerCount: 2
Fore
SplineSet
175 451 m 1,0,-1
 417 451 l 1,1,-1
 346 0 l 1,2,-1
 29 0 l 1,3,-1
 135 676 l 1,4,-1
 211 676 l 1,5,-1
 175 451 l 1,0,-1
116 74 m 1,6,-1
 278 75 l 1,7,-1
 326 379 l 1,8,-1
 164 379 l 1,9,-1
 116 74 l 1,6,-1
EndSplineSet
EndChar

StartChar: c
Encoding: 99 99 69
Width: 481
GlyphClass: 2
Flags: W
HStem: 0 72<137 355> 376 75<185 347>
LayerCount: 2
Fore
SplineSet
347 376 m 1,0,-1
 185 376 l 1,1,-1
 137 72 l 1,2,-1
 367 72 l 1,3,-1
 355 0 l 1,4,-1
 46 0 l 1,5,-1
 118 451 l 1,6,-1
 435 451 l 1,7,-1
 410 287 l 1,8,-1
 334 287 l 1,9,-1
 347 376 l 1,0,-1
EndSplineSet
EndChar

StartChar: d
Encoding: 100 100 70
Width: 481
GlyphClass: 2
Flags: W
HStem: 0 75<120 282> 379 72<168 330> 656 20G<373.8 453>
LayerCount: 2
Fore
SplineSet
341 451 m 1,0,-1
 377 676 l 1,1,-1
 453 676 l 1,2,-1
 346 0 l 1,3,-1
 29 0 l 1,4,-1
 99 451 l 1,5,-1
 341 451 l 1,0,-1
282 74 m 1,6,-1
 330 379 l 1,7,-1
 168 379 l 1,8,-1
 120 75 l 1,9,-1
 282 74 l 1,6,-1
EndSplineSet
EndChar

StartChar: e
Encoding: 101 101 71
Width: 481
GlyphClass: 2
Flags: W
HStem: 0 72<137 364> 184 74<167 329> 377 74<185 347>
LayerCount: 2
Fore
SplineSet
156 184 m 1,0,-1
 137 72 l 1,1,-1
 375 72 l 1,2,-1
 364 0 l 1,3,-1
 46 0 l 1,4,-1
 118 451 l 1,5,-1
 433 451 l 1,6,-1
 391 184 l 1,7,-1
 156 184 l 1,0,-1
167 258 m 1,8,-1
 329 258 l 1,9,-1
 347 377 l 1,10,-1
 185 377 l 1,11,-1
 167 258 l 1,8,-1
EndSplineSet
EndChar

StartChar: f
Encoding: 102 102 72
Width: 481
GlyphClass: 2
Flags: W
HStem: 0 21G<129 208.166> 379 71<102 189 276 409> 574 71<296 439>
LayerCount: 2
Fore
SplineSet
102 450 m 1,0,-1
 201 450 l 1,1,-1
 231 645 l 1,2,-1
 451 645 l 1,3,-1
 439 574 l 1,4,-1
 296 574 l 1,5,-1
 276 450 l 1,6,-1
 420 450 l 1,7,-1
 409 379 l 1,8,-1
 265 379 l 1,9,-1
 205 0 l 1,10,-1
 129 0 l 1,11,-1
 189 379 l 1,12,-1
 91 379 l 1,13,-1
 102 450 l 1,0,-1
EndSplineSet
EndChar

StartChar: g
Encoding: 103 103 73
Width: 481
GlyphClass: 2
Flags: W
LayerCount: 2
Fore
SplineSet
298 0 m 1,0,-1
 281 -113 l 1,1,-1
 43 -113 l 1,2,-1
 32 -184 l 1,3,-1
 349 -184 l 1,4,-1
 450 451 l 1,5,-1
 134 451 l 1,6,-1
 62 0 l 1,7,-1
 298 0 l 1,0,-1
310 74 m 1,8,-1
 148 74 l 1,9,-1
 197 377 l 1,10,-1
 358 377 l 1,11,-1
 310 74 l 1,8,-1
EndSplineSet
EndChar

StartChar: h
Encoding: 104 104 74
Width: 481
GlyphClass: 2
Flags: W
LayerCount: 2
Fore
SplineSet
346 0 m 1,0,-1
 417 451 l 1,1,-1
 175 451 l 1,2,-1
 211 676 l 1,3,-1
 135 676 l 1,4,-1
 29 0 l 1,5,-1
 104 0 l 1,6,-1
 164 379 l 1,7,-1
 326 379 l 1,8,-1
 266 0 l 1,9,-1
 346 0 l 1,0,-1
EndSplineSet
EndChar

StartChar: i
Encoding: 105 105 75
Width: 239
GlyphClass: 2
Flags: W
LayerCount: 2
Fore
SplineSet
99 450 m 1,0,-1
 29 0 l 1,1,-1
 104 0 l 1,2,-1
 175 451 l 1,3,-1
 99 450 l 1,0,-1
135 676 m 1,4,-1
 115 543 l 1,5,-1
 190 543 l 1,6,-1
 211 676 l 1,7,-1
 135 676 l 1,4,-1
EndSplineSet
EndChar

StartChar: j
Encoding: 106 106 76
Width: 238
GlyphClass: 2
Flags: W
HStem: -154 76<-53 28> 430 20G<107.856 186> 430 20G<107.856 186> 656 20G<142.992 222>
VStem: -66 288
LayerCount: 2
Fore
SplineSet
146 676 m 1,0,-1
 222 676 l 1,1,-1
 202 543 l 1,2,-1
 126 543 l 1,3,-1
 146 676 l 1,0,-1
-66 -154 m 1,4,-1
 -53 -78 l 1,5,-1
 28 -78 l 1,6,-1
 111 450 l 1,7,-1
 186 450 l 1,8,-1
 91 -154 l 1,9,-1
 -66 -154 l 1,4,-1
EndSplineSet
EndChar

StartChar: k
Encoding: 107 107 77
Width: 481
GlyphClass: 2
Flags: W
LayerCount: 2
Fore
SplineSet
377 0 m 1,0,-1
 214 233 l 1,1,-1
 437 450 l 1,2,-1
 329 450 l 1,3,-1
 145 259 l 1,4,-1
 211 676 l 1,5,-1
 135 676 l 1,6,-1
 29 0 l 1,7,-1
 104 0 l 1,8,-1
 135 198 l 1,9,-1
 151 198 l 1,10,-1
 259 0 l 1,11,-1
 377 0 l 1,0,-1
EndSplineSet
EndChar

StartChar: l
Encoding: 108 108 78
Width: 239
GlyphClass: 2
Flags: W
LayerCount: 2
Fore
SplineSet
135 676 m 1,0,-1
 29 0 l 1,1,-1
 104 0 l 1,2,-1
 211 676 l 1,3,-1
 135 676 l 1,0,-1
EndSplineSet
EndChar

StartChar: m
Encoding: 109 109 79
Width: 716
GlyphClass: 2
Flags: W
HStem: 0 21G<46 125.166 282 367.166 519 602.193> 379 72<182 342 424 580>
LayerCount: 2
Fore
SplineSet
364 0 m 1,0,-1
 282 0 l 1,1,-1
 342 379 l 1,2,-1
 182 379 l 1,3,-1
 122 0 l 1,4,-1
 46 0 l 1,5,-1
 118 451 l 1,6,-1
 671 451 l 1,7,-1
 599 0 l 1,8,-1
 519 0 l 1,9,-1
 580 379 l 1,10,-1
 424 379 l 1,11,-1
 364 0 l 1,0,-1
EndSplineSet
EndChar

StartChar: n
Encoding: 110 110 80
Width: 481
GlyphClass: 2
Flags: W
LayerCount: 2
Fore
SplineSet
364 0 m 1,0,-1
 435 451 l 1,1,-1
 118 451 l 1,2,-1
 46 0 l 1,3,-1
 122 0 l 1,4,-1
 182 379 l 1,5,-1
 344 379 l 1,6,-1
 284 0 l 1,7,-1
 364 0 l 1,0,-1
EndSplineSet
EndChar

StartChar: o
Encoding: 111 111 81
Width: 481
GlyphClass: 2
Flags: W
HStem: 0 72<137 299> 376 75<185 347>
LayerCount: 2
Fore
SplineSet
46 0 m 1,0,-1
 118 451 l 1,1,-1
 435 451 l 1,2,-1
 364 0 l 1,3,-1
 46 0 l 1,0,-1
347 377 m 1,4,-1
 185 376 l 1,5,-1
 137 72 l 1,6,-1
 299 72 l 1,7,-1
 347 377 l 1,4,-1
EndSplineSet
EndChar

StartChar: p
Encoding: 112 112 82
Width: 481
GlyphClass: 2
Flags: W
LayerCount: 2
Fore
SplineSet
140 0 m 1,0,-1
 382 0 l 1,1,-1
 453 451 l 1,2,-1
 135 451 l 1,3,-1
 29 -225 l 1,4,-1
 104 -225 l 1,5,-1
 140 0 l 1,0,-1
200 377 m 1,6,-1
 361 376 l 1,7,-1
 313 72 l 1,8,-1
 152 72 l 1,9,-1
 200 377 l 1,6,-1
EndSplineSet
EndChar

StartChar: q
Encoding: 113 113 83
Width: 481
GlyphClass: 2
Flags: W
HStem: -225 21G<270 349.166> 0 72<156 306> 376 75<204 366>
LayerCount: 2
Fore
SplineSet
306 0 m 1,0,-1
 65 0 l 1,1,-1
 135 451 l 1,2,-1
 453 451 l 1,3,-1
 346 -225 l 1,4,-1
 270 -225 l 1,5,-1
 306 0 l 1,0,-1
366 377 m 1,6,-1
 204 376 l 1,7,-1
 156 72 l 1,8,-1
 317 72 l 1,9,-1
 366 377 l 1,6,-1
EndSplineSet
EndChar

StartChar: r
Encoding: 114 114 84
Width: 409
GlyphClass: 2
Flags: W
HStem: 0 21G<46 129.138> 376 75<185 296>
VStem: 46 338
LayerCount: 2
Fore
SplineSet
296 377 m 1,0,-1
 185 376 l 1,1,-1
 126 0 l 1,2,-1
 46 0 l 1,3,-1
 118 451 l 1,4,-1
 384 451 l 1,5,-1
 358 287 l 1,6,-1
 283 287 l 1,7,-1
 296 377 l 1,0,-1
EndSplineSet
EndChar

StartChar: s
Encoding: 115 115 85
Width: 481
GlyphClass: 2
Flags: W
LayerCount: 2
Fore
SplineSet
134 75 m 1,0,-1
 140 113 l 1,1,-1
 65 113 l 1,2,-1
 46 0 l 1,3,-1
 361 1 l 1,4,-1
 398 232 l 1,5,-1
 172 287 l 1,6,-1
 185 376 l 1,7,-1
 347 376 l 1,8,-1
 334 287 l 1,9,-1
 410 287 l 1,10,-1
 435 451 l 1,11,-1
 118 451 l 1,12,-1
 80 215 l 1,13,-1
 309 160 l 1,14,-1
 296 75 l 1,15,-1
 134 75 l 1,0,-1
EndSplineSet
EndChar

StartChar: t
Encoding: 116 116 86
Width: 440
GlyphClass: 2
Flags: W
HStem: 0 72<215 312> 379 72<108 187 275 372>
VStem: 95 289
LayerCount: 2
Fore
SplineSet
312 0 m 1,0,-1
 128 0 l 1,1,-1
 187 379 l 1,2,-1
 95 379 l 1,3,-1
 108 451 l 1,4,-1
 200 451 l 1,5,-1
 220 584 l 1,6,-1
 296 584 l 1,7,-1
 275 451 l 1,8,-1
 384 451 l 1,9,-1
 372 379 l 1,10,-1
 263 379 l 1,11,-1
 215 72 l 1,12,-1
 324 72 l 1,13,-1
 312 0 l 1,0,-1
EndSplineSet
EndChar

StartChar: u
Encoding: 117 117 87
Width: 481
GlyphClass: 2
Flags: W
HStem: 0 72<133 295> 431 20G<114.807 194 351.834 435> 431 20G<114.807 194 351.834 435>
LayerCount: 2
Fore
SplineSet
435 451 m 1,0,-1
 364 0 l 1,1,-1
 46 0 l 1,2,-1
 118 451 l 1,3,-1
 194 451 l 1,4,-1
 133 72 l 1,5,-1
 295 72 l 1,6,-1
 355 451 l 1,7,-1
 435 451 l 1,0,-1
EndSplineSet
EndChar

StartChar: v
Encoding: 118 118 88
Width: 450
GlyphClass: 2
Flags: W
HStem: 0 72<190 219> 431 20G<67 170.108 353.507 456> 431 20G<67 170.108 353.507 456>
VStem: 67 102<387.612 451>
LayerCount: 2
Fore
SplineSet
456 451 m 1,0,-1
 261 0 l 1,1,-1
 118 0 l 1,2,-1
 67 451 l 1,3,-1
 169 451 l 1,4,-1
 190 72 l 1,5,-1
 219 72 l 1,6,-1
 361 451 l 1,7,-1
 456 451 l 1,0,-1
EndSplineSet
EndChar

StartChar: w
Encoding: 119 119 89
Width: 716
GlyphClass: 2
Flags: W
HStem: 0 72<137 293 375 535> 431 20G<114.807 198 349.834 435 591.834 671> 431 20G<114.807 198 349.834 435 591.834 671>
LayerCount: 2
Fore
SplineSet
353 451 m 1,0,-1
 435 451 l 1,1,-1
 375 72 l 1,2,-1
 535 72 l 1,3,-1
 595 451 l 1,4,-1
 671 451 l 1,5,-1
 599 0 l 1,6,-1
 46 0 l 1,7,-1
 118 451 l 1,8,-1
 198 451 l 1,9,-1
 137 72 l 1,10,-1
 293 72 l 1,11,-1
 353 451 l 1,0,-1
EndSplineSet
EndChar

StartChar: x
Encoding: 120 120 90
Width: 481
GlyphClass: 2
Flags: W
HStem: 0 21G<-5 105.348 306.174 415> 431 20G<77 179.811 362.811 476> 431 20G<77 179.811 362.811 476>
LayerCount: 2
Fore
SplineSet
415 0 m 1,0,-1
 314 0 l 1,1,-1
 242 184 l 1,2,-1
 223 184 l 1,3,-1
 91 0 l 1,4,-1
 -5 0 l 1,5,-1
 162 236 l 1,6,-1
 77 451 l 1,7,-1
 173 451 l 1,8,-1
 236 266 l 1,9,-1
 254 266 l 1,10,-1
 376 451 l 1,11,-1
 476 451 l 1,12,-1
 324 236 l 1,13,-1
 415 0 l 1,0,-1
EndSplineSet
EndChar

StartChar: y
Encoding: 121 121 91
Width: 481
GlyphClass: 2
Flags: W
HStem: -184 71<43 281> 0 74<148 298> 431 20G<130.807 208 366.817 450> 431 20G<130.807 208 366.817 450>
LayerCount: 2
Fore
SplineSet
450 451 m 1,0,-1
 349 -184 l 1,1,-1
 32 -184 l 1,2,-1
 43 -113 l 1,3,-1
 281 -113 l 1,4,-1
 298 0 l 1,5,-1
 62 0 l 1,6,-1
 134 451 l 1,7,-1
 208 451 l 1,8,-1
 148 74 l 1,9,-1
 310 74 l 1,10,-1
 370 451 l 1,11,-1
 450 451 l 1,0,-1
EndSplineSet
EndChar

StartChar: z
Encoding: 122 122 92
Width: 481
GlyphClass: 2
Flags: W
HStem: 0 72<158 355> 376 75<118 343>
LayerCount: 2
Fore
SplineSet
158 72 m 1,0,-1
 367 72 l 1,1,-1
 355 0 l 1,2,-1
 46 0 l 1,3,-1
 57 72 l 1,4,-1
 343 376 l 1,5,-1
 105 376 l 1,6,-1
 118 451 l 1,7,-1
 435 451 l 1,8,-1
 423 373 l 1,9,-1
 158 72 l 1,0,-1
EndSplineSet
EndChar

StartChar: braceleft
Encoding: 123 123 93
Width: 338
GlyphClass: 2
Flags: W
HStem: -184 82<131 291> 215 81<8 105> 594 82<242 415>
LayerCount: 2
Fore
SplineSet
8 296 m 1,0,-1
 119 296 l 1,1,-1
 179 676 l 1,2,-1
 428 676 l 1,3,-1
 415 594 l 1,4,-1
 242 594 l 1,5,-1
 131 -102 l 1,6,-1
 304 -102 l 1,7,-1
 291 -184 l 1,8,-1
 42 -184 l 1,9,-1
 105 215 l 1,10,-1
 -5 215 l 1,11,-1
 8 296 l 1,0,-1
EndSplineSet
EndChar

StartChar: bar
Encoding: 124 124 94
Width: 239
GlyphClass: 2
Flags: W
LayerCount: 2
Fore
SplineSet
147 676 m 1,0,-1
 16 -154 l 1,1,-1
 92 -154 l 1,2,-1
 223 676 l 1,3,-1
 147 676 l 1,0,-1
EndSplineSet
EndChar

StartChar: braceright
Encoding: 125 125 95
Width: 338
GlyphClass: 2
Flags: W
LayerCount: 2
Fore
SplineSet
347 296 m 1,0,-1
 237 296 l 1,1,-1
 297 676 l 1,2,-1
 48 676 l 1,3,-1
 35 594 l 1,4,-1
 208 594 l 1,5,-1
 97 -102 l 1,6,-1
 -76 -102 l 1,7,-1
 -89 -184 l 1,8,-1
 160 -184 l 1,9,-1
 223 215 l 1,10,-1
 334 215 l 1,11,-1
 347 296 l 1,0,-1
EndSplineSet
EndChar

StartChar: asciitilde
Encoding: 126 126 96
Width: 512
GlyphClass: 2
Flags: W
HStem: 210 184
LayerCount: 2
Fore
SplineSet
119 318 m 1,0,-1
 219 318 l 1,1,-1
 202 210 l 1,2,-1
 456 210 l 1,3,-1
 484 394 l 1,4,-1
 407 394 l 1,5,-1
 390 291 l 1,6,-1
 295 291 l 1,7,-1
 311 394 l 1,8,-1
 55 394 l 1,9,-1
 27 210 l 1,10,-1
 101 210 l 1,11,-1
 119 318 l 1,0,-1
EndSplineSet
EndChar

StartChar: exclamdown
Encoding: 161 161 98
Width: 239
GlyphClass: 2
Flags: W
LayerCount: 2
Fore
SplineSet
99 450 m 1,0,-1
 29 0 l 1,1,-1
 104 0 l 1,2,-1
 175 451 l 1,3,-1
 99 450 l 1,0,-1
135 676 m 1,4,-1
 115 543 l 1,5,-1
 190 543 l 1,6,-1
 211 676 l 1,7,-1
 135 676 l 1,4,-1
EndSplineSet
EndChar

StartChar: cent
Encoding: 162 162 99
Width: 481
GlyphClass: 2
Flags: W
HStem: 0 72<135 172 255 353> 376 75<183 231 314 345>
LayerCount: 2
Fore
SplineSet
231 376 m 1,0,-1
 183 376 l 1,1,-1
 135 72 l 1,2,-1
 183 72 l 1,3,-1
 231 376 l 1,0,-1
407 287 m 1,4,-1
 331 287 l 1,5,-1
 345 376 l 1,6,-1
 303 376 l 1,7,-1
 255 72 l 1,8,-1
 365 72 l 1,9,-1
 353 0 l 1,10,-1
 244 0 l 1,11,-1
 230 -82 l 1,12,-1
 159 -82 l 1,13,-1
 172 0 l 1,14,-1
 44 0 l 1,15,-1
 115 451 l 1,16,-1
 243 451 l 1,17,-1
 261 563 l 1,18,-1
 333 563 l 1,19,-1
 314 451 l 1,20,-1
 432 451 l 1,21,-1
 407 287 l 1,4,-1
EndSplineSet
EndChar

StartChar: sterling
Encoding: 163 163 100
Width: 481
GlyphClass: 2
Flags: W
HStem: 0 71<57 156 231 369> 205 70<90 177 264 396> 380 71<281 424>
LayerCount: 2
Fore
SplineSet
57 71 m 1,0,-1
 156 71 l 1,1,-1
 177 205 l 1,2,-1
 79 205 l 1,3,-1
 90 275 l 1,4,-1
 188 275 l 1,5,-1
 216 451 l 1,6,-1
 435 451 l 1,7,-1
 424 380 l 1,8,-1
 281 380 l 1,9,-1
 264 275 l 1,10,-1
 408 275 l 1,11,-1
 396 205 l 1,12,-1
 253 205 l 1,13,-1
 231 71 l 1,14,-1
 380 71 l 1,15,-1
 369 0 l 1,16,-1
 46 0 l 1,17,-1
 57 71 l 1,0,-1
EndSplineSet
EndChar

StartChar: yen
Encoding: 165 165 101
Width: 512
GlyphClass: 2
Flags: W
HStem: 0 72<58 296> 123 72<22 304 395 451> 246 71<41 324 415 470> 389 74<196 346> 553 20G<135.957 213 371.727 455>
LayerCount: 2
Fore
SplineSet
451 123 m 1,0,-1
 384 123 l 1,1,-1
 365 0 l 1,2,-1
 47 0 l 1,3,-1
 58 72 l 1,4,-1
 296 72 l 1,5,-1
 304 123 l 1,6,-1
 10 123 l 1,7,-1
 22 195 l 1,8,-1
 315 195 l 1,9,-1
 324 246 l 1,10,-1
 30 246 l 1,11,-1
 41 317 l 1,12,-1
 335 317 l 1,13,-1
 346 389 l 1,14,-1
 111 389 l 1,15,-1
 139 573 l 1,16,-1
 213 573 l 1,17,-1
 196 463 l 1,18,-1
 357 463 l 1,19,-1
 375 573 l 1,20,-1
 455 573 l 1,21,-1
 415 317 l 1,22,-1
 481 317 l 1,23,-1
 470 246 l 1,24,-1
 403 246 l 1,25,-1
 395 195 l 1,26,-1
 462 195 l 1,27,-1
 451 123 l 1,0,-1
EndSplineSet
EndChar

StartChar: brokenbar
Encoding: 166 166 102
Width: 239
GlyphClass: 2
Flags: W
LayerCount: 2
Fore
SplineSet
72 205 m 1,0,-1
 17 -143 l 1,1,-1
 93 -143 l 1,2,-1
 147 205 l 1,3,-1
 72 205 l 1,0,-1
146 676 m 1,4,-1
 92 328 l 1,5,-1
 168 328 l 1,6,-1
 222 676 l 1,7,-1
 146 676 l 1,4,-1
EndSplineSet
EndChar

StartChar: section
Encoding: 167 167 103
Width: 373
GlyphClass: 2
Flags: W
HStem: -13 74<56 102> -13 49<102 210> 404 50<164 270>
VStem: 45 284
LayerCount: 2
Fore
SplineSet
245 258 m 1,0,-1
 195 271 l 1,1,-1
 139 247 l 1,2,-1
 129 182 l 1,3,-1
 171 171 l 1,4,-1
 234 194 l 1,5,-1
 245 258 l 1,0,-1
284 179 m 1,6,-1
 211 157 l 1,7,-1
 278 140 l 1,8,-1
 253 -12 l 1,9,-1
 45 -13 l 1,10,-1
 56 61 l 1,11,-1
 106 61 l 1,12,-1
 102 36 l 1,13,-1
 210 36 l 1,14,-1
 218 92 l 1,15,-1
 68 129 l 1,16,-1
 88 262 l 1,17,-1
 151 285 l 1,18,-1
 94 298 l 1,19,-1
 119 454 l 1,20,-1
 329 454 l 1,21,-1
 311 345 l 1,22,-1
 261 345 l 1,23,-1
 270 404 l 1,24,-1
 164 404 l 1,25,-1
 155 345 l 1,26,-1
 304 309 l 1,27,28
 302 295 302 295 295 251 c 128,-1,29
 288 207 288 207 284 179 c 1,6,-1
EndSplineSet
EndChar

StartChar: dieresis
Encoding: 168 168 104
Width: 481
GlyphClass: 2
Flags: W
HStem: 543 133
LayerCount: 2
Fore
SplineSet
92 676 m 1,0,-1
 72 543 l 1,1,-1
 147 543 l 1,2,-1
 168 676 l 1,3,-1
 92 676 l 1,0,-1
276 676 m 1,4,-1
 256 543 l 1,5,-1
 332 543 l 1,6,-1
 352 676 l 1,7,-1
 276 676 l 1,4,-1
EndSplineSet
EndChar

StartChar: copyright
Encoding: 169 169 105
Width: 665
GlyphClass: 2
Flags: W
HStem: -76 78<117 463> 102 72<292 397> 355 75<321 380> 521 73<200 546>
LayerCount: 2
Fore
SplineSet
380 355 m 1,0,-1
 321 355 l 1,1,-1
 292 174 l 1,2,-1
 409 174 l 1,3,-1
 397 102 l 1,4,-1
 211 102 l 1,5,-1
 262 430 l 1,6,-1
 457 430 l 1,7,-1
 434 287 l 1,8,-1
 369 287 l 1,9,-1
 380 355 l 1,0,-1
117 2 m 1,10,-1
 463 2 l 1,11,-1
 546 521 l 1,12,-1
 200 521 l 1,13,-1
 117 2 l 1,10,-1
29 -76 m 1,14,-1
 135 594 l 1,15,-1
 637 594 l 1,16,-1
 530 -76 l 1,17,-1
 29 -76 l 1,14,-1
EndSplineSet
EndChar

StartChar: guillemotleft
Encoding: 171 171 106
Width: 593
GlyphClass: 2
Flags: W
LayerCount: 2
Fore
SplineSet
51 236 m 1,0,-1
 319 467 l 1,1,-1
 366 410 l 1,2,-1
 167 236 l 1,3,-1
 310 61 l 1,4,-1
 246 4 l 1,5,-1
 51 236 l 1,0,-1
256 236 m 1,6,-1
 524 467 l 1,7,-1
 570 410 l 1,8,-1
 372 236 l 1,9,-1
 515 61 l 1,10,-1
 451 4 l 1,11,-1
 256 236 l 1,6,-1
EndSplineSet
EndChar

StartChar: registered
Encoding: 174 174 107
Width: 665
GlyphClass: 2
Flags: W
HStem: -76 78<117 463> 236 51<305 319> 369 61<318 378> 521 73<200 546>
LayerCount: 2
Fore
SplineSet
117 2 m 1,0,-1
 463 2 l 1,1,-1
 546 521 l 1,2,-1
 200 521 l 1,3,-1
 117 2 l 1,0,-1
29 -76 m 1,4,-1
 135 594 l 1,5,-1
 637 594 l 1,6,-1
 530 -76 l 1,7,-1
 29 -76 l 1,4,-1
446 102 m 1,8,-1
 367 102 l 1,9,-1
 319 236 l 1,10,-1
 297 236 l 1,11,-1
 276 102 l 1,12,-1
 211 102 l 1,13,-1
 262 430 l 1,14,-1
 446 430 l 1,15,-1
 416 236 l 1,16,-1
 379 236 l 1,17,-1
 446 102 l 1,8,-1
365 287 m 1,18,-1
 378 369 l 1,19,-1
 318 369 l 1,20,-1
 305 287 l 1,21,-1
 365 287 l 1,18,-1
EndSplineSet
EndChar

StartChar: plusminus
Encoding: 177 177 108
Width: 491
GlyphClass: 2
Flags: W
HStem: 0 21G<174 259.122> 205 71<43 206 299 472> 431 20G<241.8 327> 431 20G<241.8 327>
LayerCount: 2
Fore
SplineSet
421 -123 m 1,0,-1
 432 -51 l 1,1,-1
 -8 -51 l 1,2,-1
 -19 -123 l 1,3,-1
 421 -123 l 1,0,-1
174 0 m 1,4,-1
 206 205 l 1,5,-1
 32 205 l 1,6,-1
 43 276 l 1,7,-1
 217 276 l 1,8,-1
 245 451 l 1,9,-1
 327 451 l 1,10,-1
 299 276 l 1,11,-1
 483 276 l 1,12,-1
 472 205 l 1,13,-1
 288 205 l 1,14,-1
 256 0 l 1,15,-1
 174 0 l 1,4,-1
EndSplineSet
EndChar

StartChar: acute
Encoding: 180 180 109
Width: 481
GlyphClass: 2
Flags: W
LayerCount: 2
Fore
SplineSet
302 676 m 1,0,-1
 76 543 l 1,1,-1
 122 481 l 1,2,-1
 348 614 l 1,3,-1
 302 676 l 1,0,-1
EndSplineSet
EndChar

StartChar: paragraph
Encoding: 182 182 110
Width: 409
GlyphClass: 2
Flags: W
LayerCount: 2
Fore
SplineSet
77 256 m 1,0,-1
 246 256 l 1,1,-1
 206 0 l 1,2,-1
 283 0 l 1,3,-1
 373 573 l 1,4,-1
 127 573 l 1,5,-1
 77 256 l 1,0,-1
168 328 m 1,6,-1
 196 502 l 1,7,-1
 285 502 l 1,8,-1
 257 328 l 1,9,-1
 168 328 l 1,6,-1
EndSplineSet
EndChar

StartChar: cedilla
Encoding: 184 184 111
Width: 481
GlyphClass: 2
Flags: W
HStem: -174 205
VStem: 178 170
LayerCount: 2
Fore
SplineSet
178 -174 m 1,0,-1
 272 31 l 1,1,-1
 348 31 l 1,2,-1
 264 -174 l 1,3,-1
 178 -174 l 1,0,-1
EndSplineSet
EndChar

StartChar: guillemotright
Encoding: 187 187 112
Width: 593
GlyphClass: 2
Flags: W
LayerCount: 2
Fore
SplineSet
543 236 m 1,0,-1
 348 467 l 1,1,-1
 284 410 l 1,2,-1
 427 236 l 1,3,-1
 228 61 l 1,4,-1
 274 4 l 1,5,-1
 543 236 l 1,0,-1
338 236 m 1,6,-1
 143 467 l 1,7,-1
 79 410 l 1,8,-1
 222 236 l 1,9,-1
 24 61 l 1,10,-1
 70 4 l 1,11,-1
 338 236 l 1,6,-1
EndSplineSet
EndChar

StartChar: questiondown
Encoding: 191 191 113
Width: 481
GlyphClass: 2
Flags: W
HStem: 0 74<116 346> 278 70<148 221>
VStem: 31 327
LayerCount: 2
Fore
SplineSet
346 0 m 1,0,-1
 31 0 l 1,1,-1
 86 348 l 1,2,-1
 221 348 l 1,3,-1
 236 440 l 1,4,-1
 313 440 l 1,5,-1
 288 278 l 1,6,-1
 148 278 l 1,7,-1
 116 74 l 1,8,-1
 358 74 l 1,9,-1
 346 0 l 1,0,-1
325 512 m 1,10,-1
 344 635 l 1,11,-1
 268 635 l 1,12,-1
 249 512 l 1,13,-1
 325 512 l 1,10,-1
EndSplineSet
EndChar

StartChar: Agrave
Encoding: 192 192 114
Width: 481
GlyphClass: 2
Flags: W
HStem: 0 21G<37 116.125 274 357.141> 256 72<164 314> 502 71<191 353>
LayerCount: 2
Fore
SplineSet
172 799 m 1,0,-1
 355 666 l 1,1,-1
 291 604 l 1,2,-1
 108 737 l 1,3,-1
 172 799 l 1,0,-1
191 502 m 1,4,-1
 164 328 l 1,5,-1
 326 328 l 1,6,-1
 353 502 l 1,7,-1
 191 502 l 1,4,-1
354 0 m 1,8,-1
 274 0 l 1,9,-1
 314 256 l 1,10,-1
 153 256 l 1,11,-1
 113 0 l 1,12,-1
 37 0 l 1,13,-1
 127 573 l 1,14,-1
 444 573 l 1,15,-1
 354 0 l 1,8,-1
EndSplineSet
EndChar

StartChar: Aacute
Encoding: 193 193 115
Width: 481
GlyphClass: 2
Flags: W
HStem: 0 21G<37 116.125 274 357.141> 256 72<164 314> 502 71<191 353>
LayerCount: 2
Fore
SplineSet
191 502 m 1,0,-1
 164 328 l 1,1,-1
 326 328 l 1,2,-1
 353 502 l 1,3,-1
 191 502 l 1,0,-1
354 0 m 1,4,-1
 274 0 l 1,5,-1
 314 256 l 1,6,-1
 153 256 l 1,7,-1
 113 0 l 1,8,-1
 37 0 l 1,9,-1
 127 573 l 1,10,-1
 444 573 l 1,11,-1
 354 0 l 1,4,-1
324 809 m 1,12,-1
 97 676 l 1,13,-1
 143 614 l 1,14,-1
 369 748 l 1,15,-1
 324 809 l 1,12,-1
EndSplineSet
EndChar

StartChar: Acircumflex
Encoding: 194 194 116
Width: 481
GlyphClass: 2
Flags: W
HStem: 0 21G<37 116.125 274 357.141> 256 72<164 314> 502 71<191 353>
LayerCount: 2
Fore
SplineSet
260 803 m 1,0,-1
 377 664 l 1,1,-1
 313 610 l 1,2,-1
 244 702 l 1,3,-1
 145 610 l 1,4,-1
 98 664 l 1,5,-1
 260 803 l 1,0,-1
191 502 m 1,6,-1
 164 328 l 1,7,-1
 326 328 l 1,8,-1
 353 502 l 1,9,-1
 191 502 l 1,6,-1
354 0 m 1,10,-1
 274 0 l 1,11,-1
 314 256 l 1,12,-1
 153 256 l 1,13,-1
 113 0 l 1,14,-1
 37 0 l 1,15,-1
 127 573 l 1,16,-1
 444 573 l 1,17,-1
 354 0 l 1,10,-1
EndSplineSet
EndChar

StartChar: Atilde
Encoding: 195 195 117
Width: 481
GlyphClass: 2
Flags: W
HStem: 0 21G<37 116.125 274 357.141> 256 72<164 314> 502 71<191 353>
LayerCount: 2
Fore
SplineSet
186 725 m 1,0,-1
 266 725 l 1,1,-1
 253 638 l 1,2,-1
 456 638 l 1,3,-1
 479 785 l 1,4,-1
 417 785 l 1,5,-1
 403 702 l 1,6,-1
 328 702 l 1,7,-1
 341 785 l 1,8,-1
 136 785 l 1,9,-1
 113 638 l 1,10,-1
 172 638 l 1,11,-1
 186 725 l 1,0,-1
191 502 m 1,12,-1
 164 328 l 1,13,-1
 326 328 l 1,14,-1
 353 502 l 1,15,-1
 191 502 l 1,12,-1
354 0 m 1,16,-1
 274 0 l 1,17,-1
 314 256 l 1,18,-1
 153 256 l 1,19,-1
 113 0 l 1,20,-1
 37 0 l 1,21,-1
 127 573 l 1,22,-1
 444 573 l 1,23,-1
 354 0 l 1,16,-1
EndSplineSet
EndChar

StartChar: Adieresis
Encoding: 196 196 118
Width: 481
GlyphClass: 2
Flags: W
HStem: 0 21G<37 116.125 274 357.141> 256 72<164 314> 502 71<191 353>
LayerCount: 2
Fore
SplineSet
105 758 m 1,0,-1
 84 625 l 1,1,-1
 160 625 l 1,2,-1
 181 758 l 1,3,-1
 105 758 l 1,0,-1
290 758 m 1,4,-1
 268 625 l 1,5,-1
 344 625 l 1,6,-1
 366 758 l 1,7,-1
 290 758 l 1,4,-1
191 502 m 1,8,-1
 164 328 l 1,9,-1
 326 328 l 1,10,-1
 353 502 l 1,11,-1
 191 502 l 1,8,-1
354 0 m 1,12,-1
 274 0 l 1,13,-1
 314 256 l 1,14,-1
 153 256 l 1,15,-1
 113 0 l 1,16,-1
 37 0 l 1,17,-1
 127 573 l 1,18,-1
 444 573 l 1,19,-1
 354 0 l 1,12,-1
EndSplineSet
EndChar

StartChar: Aring
Encoding: 197 197 119
Width: 481
GlyphClass: 2
Flags: W
HStem: 0 21G<37 116.125 274 357.141> 256 72<164 314> 502 71<191 353> 612 43<147 224> 776 45<166 244>
LayerCount: 2
Fore
SplineSet
82 612 m 1,0,-1
 115 821 l 1,1,-1
 305 821 l 1,2,-1
 272 612 l 1,3,-1
 82 612 l 1,0,-1
244 777 m 1,4,-1
 166 776 l 1,5,-1
 147 655 l 1,6,-1
 224 655 l 1,7,-1
 244 777 l 1,4,-1
191 502 m 1,8,-1
 164 328 l 1,9,-1
 326 328 l 1,10,-1
 353 502 l 1,11,-1
 191 502 l 1,8,-1
354 0 m 1,12,-1
 274 0 l 1,13,-1
 314 256 l 1,14,-1
 153 256 l 1,15,-1
 113 0 l 1,16,-1
 37 0 l 1,17,-1
 127 573 l 1,18,-1
 444 573 l 1,19,-1
 354 0 l 1,12,-1
EndSplineSet
EndChar

StartChar: AE
Encoding: 198 198 120
Width: 727
GlyphClass: 2
Flags: W
HStem: 0 78<371 600> 255 72<164 314 410 640> 502 72<191 353 437 679>
LayerCount: 2
Fore
SplineSet
274 0 m 1,0,-1
 314 255 l 1,1,-1
 153 255 l 1,2,-1
 113 0 l 1,3,-1
 37 0 l 1,4,-1
 127 573 l 1,5,6
 313 573 313 573 690 574 c 1,7,-1
 679 502 l 1,8,-1
 437 502 l 1,9,-1
 410 327 l 1,10,-1
 651 327 l 1,11,-1
 640 255 l 1,12,-1
 398 255 l 1,13,-1
 371 78 l 1,14,-1
 612 78 l 1,15,-1
 600 0 l 1,16,-1
 274 0 l 1,0,-1
326 327 m 1,17,-1
 353 502 l 1,18,-1
 191 502 l 1,19,-1
 164 327 l 1,20,-1
 326 327 l 1,17,-1
EndSplineSet
EndChar

StartChar: Ccedilla
Encoding: 199 199 121
Width: 481
GlyphClass: 2
Flags: W
HStem: 0 72<141 215 293 359> 499 74<209 371>
LayerCount: 2
Fore
SplineSet
293 0 m 1,0,-1
 221 -174 l 1,1,-1
 135 -174 l 1,2,-1
 215 0 l 1,3,-1
 50 0 l 1,4,-1
 141 573 l 1,5,-1
 459 573 l 1,6,-1
 432 410 l 1,7,-1
 356 410 l 1,8,-1
 371 499 l 1,9,-1
 209 499 l 1,10,-1
 141 72 l 1,11,-1
 371 72 l 1,12,-1
 359 0 l 1,13,-1
 293 0 l 1,0,-1
EndSplineSet
EndChar

StartChar: Egrave
Encoding: 200 200 122
Width: 481
GlyphClass: 2
Flags: W
HStem: 0 78<125 354> 306 72<172 402> 502 71<191 433>
LayerCount: 2
Fore
SplineSet
170 788 m 1,0,-1
 354 655 l 1,1,-1
 289 594 l 1,2,-1
 105 727 l 1,3,-1
 170 788 l 1,0,-1
367 78 m 1,4,-1
 354 0 l 1,5,-1
 37 0 l 1,6,-1
 127 573 l 1,7,-1
 444 574 l 1,8,-1
 433 502 l 1,9,-1
 191 502 l 1,10,-1
 172 378 l 1,11,-1
 414 378 l 1,12,-1
 402 306 l 1,13,-1
 161 306 l 1,14,-1
 125 78 l 1,15,-1
 367 78 l 1,4,-1
EndSplineSet
EndChar

StartChar: Eacute
Encoding: 201 201 123
Width: 481
GlyphClass: 2
Flags: W
HStem: 0 78<125 354> 306 72<172 402> 502 71<191 433>
LayerCount: 2
Fore
SplineSet
367 78 m 1,0,-1
 354 0 l 1,1,-1
 37 0 l 1,2,-1
 127 573 l 1,3,-1
 444 574 l 1,4,-1
 433 502 l 1,5,-1
 191 502 l 1,6,-1
 172 378 l 1,7,-1
 414 378 l 1,8,-1
 402 306 l 1,9,-1
 161 306 l 1,10,-1
 125 78 l 1,11,-1
 367 78 l 1,0,-1
322 799 m 1,12,-1
 95 666 l 1,13,-1
 141 604 l 1,14,-1
 368 737 l 1,15,-1
 322 799 l 1,12,-1
EndSplineSet
EndChar

StartChar: Ecircumflex
Encoding: 202 202 124
Width: 481
GlyphClass: 2
Flags: W
HStem: 0 78<125 354> 306 72<172 402> 502 71<191 433>
LayerCount: 2
Fore
SplineSet
367 78 m 1,0,-1
 354 0 l 1,1,-1
 37 0 l 1,2,-1
 127 573 l 1,3,-1
 444 574 l 1,4,-1
 433 502 l 1,5,-1
 191 502 l 1,6,-1
 172 378 l 1,7,-1
 414 378 l 1,8,-1
 402 306 l 1,9,-1
 161 306 l 1,10,-1
 125 78 l 1,11,-1
 367 78 l 1,0,-1
260 803 m 1,12,-1
 377 664 l 1,13,-1
 313 610 l 1,14,-1
 244 702 l 1,15,-1
 145 610 l 1,16,-1
 98 664 l 1,17,-1
 260 803 l 1,12,-1
EndSplineSet
EndChar

StartChar: Edieresis
Encoding: 203 203 125
Width: 481
GlyphClass: 2
Flags: W
HStem: 0 78<125 354> 306 72<172 402> 502 71<191 433>
LayerCount: 2
Fore
SplineSet
103 748 m 1,0,-1
 83 614 l 1,1,-1
 159 614 l 1,2,-1
 179 748 l 1,3,-1
 103 748 l 1,0,-1
288 748 m 1,4,-1
 267 614 l 1,5,-1
 343 614 l 1,6,-1
 364 748 l 1,7,-1
 288 748 l 1,4,-1
367 78 m 1,8,-1
 354 0 l 1,9,-1
 37 0 l 1,10,-1
 127 573 l 1,11,-1
 444 574 l 1,12,-1
 433 502 l 1,13,-1
 191 502 l 1,14,-1
 172 378 l 1,15,-1
 414 378 l 1,16,-1
 402 306 l 1,17,-1
 161 306 l 1,18,-1
 125 78 l 1,19,-1
 367 78 l 1,8,-1
EndSplineSet
EndChar

StartChar: Igrave
Encoding: 204 204 126
Width: 324
GlyphClass: 2
Flags: W
HStem: 0 74<24 90 166 228> 500 73<96 158 233 302>
VStem: 12 301
LayerCount: 2
Fore
SplineSet
111 799 m 1,0,-1
 294 666 l 1,1,-1
 229 604 l 1,2,-1
 46 737 l 1,3,-1
 111 799 l 1,0,-1
158 500 m 1,4,-1
 85 500 l 1,5,-1
 96 573 l 1,6,-1
 313 573 l 1,7,-1
 302 500 l 1,8,-1
 233 500 l 1,9,-1
 166 74 l 1,10,-1
 240 74 l 1,11,-1
 228 0 l 1,12,-1
 12 0 l 1,13,-1
 24 74 l 1,14,-1
 90 74 l 1,15,-1
 158 500 l 1,4,-1
EndSplineSet
EndChar

StartChar: Iacute
Encoding: 205 205 127
Width: 324
GlyphClass: 2
Flags: W
HStem: 0 74<24 90 166 228> 500 73<96 158 233 302>
VStem: 12 301
LayerCount: 2
Fore
SplineSet
158 500 m 1,0,-1
 85 500 l 1,1,-1
 96 573 l 1,2,-1
 313 573 l 1,3,-1
 302 500 l 1,4,-1
 233 500 l 1,5,-1
 166 74 l 1,6,-1
 240 74 l 1,7,-1
 228 0 l 1,8,-1
 12 0 l 1,9,-1
 24 74 l 1,10,-1
 90 74 l 1,11,-1
 158 500 l 1,0,-1
260 799 m 1,12,-1
 34 666 l 1,13,-1
 80 604 l 1,14,-1
 306 737 l 1,15,-1
 260 799 l 1,12,-1
EndSplineSet
EndChar

StartChar: Icircumflex
Encoding: 206 206 128
Width: 324
GlyphClass: 2
Flags: W
HStem: 0 74<24 90 166 228> 500 73<96 158 233 302>
VStem: 12 301
LayerCount: 2
Fore
SplineSet
158 500 m 1,0,-1
 85 500 l 1,1,-1
 96 573 l 1,2,-1
 313 573 l 1,3,-1
 302 500 l 1,4,-1
 233 500 l 1,5,-1
 166 74 l 1,6,-1
 240 74 l 1,7,-1
 228 0 l 1,8,-1
 12 0 l 1,9,-1
 24 74 l 1,10,-1
 90 74 l 1,11,-1
 158 500 l 1,0,-1
188 803 m 1,12,-1
 305 664 l 1,13,-1
 242 610 l 1,14,-1
 172 702 l 1,15,-1
 74 610 l 1,16,-1
 27 664 l 1,17,-1
 188 803 l 1,12,-1
EndSplineSet
EndChar

StartChar: Idieresis
Encoding: 207 207 129
Width: 324
GlyphClass: 2
Flags: W
HStem: 0 74<24 90 166 228> 500 73<96 158 233 302>
LayerCount: 2
Fore
SplineSet
65 758 m 1,0,-1
 43 625 l 1,1,-1
 119 625 l 1,2,-1
 140 758 l 1,3,-1
 65 758 l 1,0,-1
249 758 m 1,4,-1
 227 625 l 1,5,-1
 303 625 l 1,6,-1
 325 758 l 1,7,-1
 249 758 l 1,4,-1
158 500 m 1,8,-1
 85 500 l 1,9,-1
 96 573 l 1,10,-1
 313 573 l 1,11,-1
 302 500 l 1,12,-1
 233 500 l 1,13,-1
 166 74 l 1,14,-1
 240 74 l 1,15,-1
 228 0 l 1,16,-1
 12 0 l 1,17,-1
 24 74 l 1,18,-1
 90 74 l 1,19,-1
 158 500 l 1,8,-1
EndSplineSet
EndChar

StartChar: Ntilde
Encoding: 209 209 130
Width: 481
GlyphClass: 2
Flags: W
LayerCount: 2
Fore
SplineSet
186 725 m 1,0,-1
 266 725 l 1,1,-1
 253 638 l 1,2,-1
 456 638 l 1,3,-1
 479 785 l 1,4,-1
 417 785 l 1,5,-1
 403 702 l 1,6,-1
 328 702 l 1,7,-1
 341 785 l 1,8,-1
 136 785 l 1,9,-1
 113 638 l 1,10,-1
 172 638 l 1,11,-1
 186 725 l 1,0,-1
200 574 m 1,12,-1
 127 573 l 1,13,-1
 37 0 l 1,14,-1
 113 0 l 1,15,-1
 169 358 l 1,16,-1
 294 0 l 1,17,-1
 354 0 l 1,18,-1
 444 573 l 1,19,-1
 365 573 l 1,20,-1
 314 256 l 1,21,-1
 200 574 l 1,12,-1
EndSplineSet
EndChar

StartChar: Ograve
Encoding: 210 210 131
Width: 481
GlyphClass: 2
Flags: W
HStem: 0 78<125 287> 501 72<191 353>
LayerCount: 2
Fore
SplineSet
170 788 m 1,0,-1
 354 655 l 1,1,-1
 289 594 l 1,2,-1
 105 727 l 1,3,-1
 170 788 l 1,0,-1
125 78 m 1,4,-1
 287 78 l 1,5,-1
 353 501 l 1,6,-1
 191 501 l 1,7,-1
 125 78 l 1,4,-1
37 0 m 1,8,-1
 127 573 l 1,9,-1
 444 573 l 1,10,-1
 354 0 l 1,11,-1
 37 0 l 1,8,-1
EndSplineSet
EndChar

StartChar: Oacute
Encoding: 211 211 132
Width: 481
GlyphClass: 2
Flags: W
HStem: 0 78<125 287> 501 72<191 353>
LayerCount: 2
Fore
SplineSet
125 78 m 1,0,-1
 287 78 l 1,1,-1
 353 501 l 1,2,-1
 191 501 l 1,3,-1
 125 78 l 1,0,-1
37 0 m 1,4,-1
 127 573 l 1,5,-1
 444 573 l 1,6,-1
 354 0 l 1,7,-1
 37 0 l 1,4,-1
322 799 m 1,8,-1
 95 666 l 1,9,-1
 141 604 l 1,10,-1
 368 737 l 1,11,-1
 322 799 l 1,8,-1
EndSplineSet
EndChar

StartChar: Ocircumflex
Encoding: 212 212 133
Width: 481
GlyphClass: 2
Flags: W
HStem: 0 78<125 287> 501 72<191 353>
LayerCount: 2
Fore
SplineSet
125 78 m 1,0,-1
 287 78 l 1,1,-1
 353 501 l 1,2,-1
 191 501 l 1,3,-1
 125 78 l 1,0,-1
37 0 m 1,4,-1
 127 573 l 1,5,-1
 444 573 l 1,6,-1
 354 0 l 1,7,-1
 37 0 l 1,4,-1
260 803 m 1,8,-1
 377 664 l 1,9,-1
 313 610 l 1,10,-1
 244 702 l 1,11,-1
 145 610 l 1,12,-1
 98 664 l 1,13,-1
 260 803 l 1,8,-1
EndSplineSet
EndChar

StartChar: Otilde
Encoding: 213 213 134
Width: 481
GlyphClass: 2
Flags: W
HStem: 0 78<125 287> 501 72<191 353>
LayerCount: 2
Fore
SplineSet
186 725 m 1,0,-1
 266 725 l 1,1,-1
 253 638 l 1,2,-1
 456 638 l 1,3,-1
 479 785 l 1,4,-1
 417 785 l 1,5,-1
 403 702 l 1,6,-1
 328 702 l 1,7,-1
 341 785 l 1,8,-1
 136 785 l 1,9,-1
 113 638 l 1,10,-1
 172 638 l 1,11,-1
 186 725 l 1,0,-1
125 78 m 1,12,-1
 287 78 l 1,13,-1
 353 501 l 1,14,-1
 191 501 l 1,15,-1
 125 78 l 1,12,-1
37 0 m 1,16,-1
 127 573 l 1,17,-1
 444 573 l 1,18,-1
 354 0 l 1,19,-1
 37 0 l 1,16,-1
EndSplineSet
EndChar

StartChar: Odieresis
Encoding: 214 214 135
Width: 481
GlyphClass: 2
Flags: W
HStem: 0 78<125 287> 501 72<191 353>
LayerCount: 2
Fore
SplineSet
125 78 m 1,0,-1
 287 78 l 1,1,-1
 353 501 l 1,2,-1
 191 501 l 1,3,-1
 125 78 l 1,0,-1
37 0 m 1,4,-1
 127 573 l 1,5,-1
 444 573 l 1,6,-1
 354 0 l 1,7,-1
 37 0 l 1,4,-1
EndSplineSet
EndChar

StartChar: multiply
Encoding: 215 215 136
Width: 513
GlyphClass: 2
Flags: W
LayerCount: 2
Fore
SplineSet
353 44 m 1,0,-1
 247 171 l 1,1,-1
 100 44 l 1,2,-1
 51 102 l 1,3,-1
 199 228 l 1,4,-1
 92 355 l 1,5,-1
 159 414 l 1,6,-1
 265 287 l 1,7,-1
 413 414 l 1,8,-1
 461 355 l 1,9,-1
 314 228 l 1,10,-1
 421 102 l 1,11,-1
 353 44 l 1,0,-1
EndSplineSet
EndChar

StartChar: Oslash
Encoding: 216 216 137
Width: 481
GlyphClass: 2
Flags: W
HStem: 0 78<187 285> 501 72<190 291>
LayerCount: 2
Fore
SplineSet
291 501 m 1,0,-1
 190 501 l 1,1,-1
 129 119 l 1,2,-1
 291 501 l 1,0,-1
187 78 m 1,3,-1
 285 78 l 1,4,-1
 343 444 l 1,5,-1
 187 78 l 1,3,-1
35 0 m 1,6,-1
 126 573 l 1,7,-1
 322 573 l 1,8,-1
 352 645 l 1,9,-1
 428 645 l 1,10,-1
 397 573 l 1,11,-1
 443 573 l 1,12,-1
 352 0 l 1,13,-1
 155 0 l 1,14,-1
 133 -51 l 1,15,-1
 57 -51 l 1,16,-1
 79 0 l 1,17,-1
 35 0 l 1,6,-1
EndSplineSet
EndChar

StartChar: Ugrave
Encoding: 217 217 138
Width: 481
GlyphClass: 2
Flags: W
HStem: 0 72<124 286> 553 20G<123.859 203 361.846 444>
LayerCount: 2
Fore
SplineSet
172 799 m 1,0,-1
 355 666 l 1,1,-1
 291 604 l 1,2,-1
 108 737 l 1,3,-1
 172 799 l 1,0,-1
444 573 m 1,4,-1
 354 0 l 1,5,-1
 37 0 l 1,6,-1
 127 573 l 1,7,-1
 203 573 l 1,8,-1
 124 72 l 1,9,-1
 286 72 l 1,10,-1
 365 573 l 1,11,-1
 444 573 l 1,4,-1
EndSplineSet
EndChar

StartChar: Uacute
Encoding: 218 218 139
Width: 481
GlyphClass: 2
Flags: W
HStem: 0 72<124 286> 553 20G<123.859 203 361.846 444>
LayerCount: 2
Fore
SplineSet
444 573 m 1,0,-1
 354 0 l 1,1,-1
 37 0 l 1,2,-1
 127 573 l 1,3,-1
 203 573 l 1,4,-1
 124 72 l 1,5,-1
 286 72 l 1,6,-1
 365 573 l 1,7,-1
 444 573 l 1,0,-1
322 799 m 1,8,-1
 95 666 l 1,9,-1
 141 604 l 1,10,-1
 368 737 l 1,11,-1
 322 799 l 1,8,-1
EndSplineSet
EndChar

StartChar: Ucircumflex
Encoding: 219 219 140
Width: 481
GlyphClass: 2
Flags: W
HStem: 0 72<124 286> 553 20G<123.859 203 361.846 444>
LayerCount: 2
Fore
SplineSet
444 573 m 1,0,-1
 354 0 l 1,1,-1
 37 0 l 1,2,-1
 127 573 l 1,3,-1
 203 573 l 1,4,-1
 124 72 l 1,5,-1
 286 72 l 1,6,-1
 365 573 l 1,7,-1
 444 573 l 1,0,-1
260 803 m 1,8,-1
 377 664 l 1,9,-1
 313 610 l 1,10,-1
 244 702 l 1,11,-1
 145 610 l 1,12,-1
 98 664 l 1,13,-1
 260 803 l 1,8,-1
EndSplineSet
EndChar

StartChar: Udieresis
Encoding: 220 220 141
Width: 481
GlyphClass: 2
Flags: W
HStem: 0 72<124 286> 553 20G<123.859 203 361.846 444>
LayerCount: 2
Fore
SplineSet
444 573 m 1,0,-1
 354 0 l 1,1,-1
 37 0 l 1,2,-1
 127 573 l 1,3,-1
 203 573 l 1,4,-1
 124 72 l 1,5,-1
 286 72 l 1,6,-1
 365 573 l 1,7,-1
 444 573 l 1,0,-1
EndSplineSet
EndChar

StartChar: Yacute
Encoding: 221 221 142
Width: 481
GlyphClass: 2
Flags: W
HStem: 0 72<48 286> 184 74<154 303> 553 20G<125.864 203 361.825 444>
LayerCount: 2
Fore
SplineSet
444 573 m 1,0,-1
 354 0 l 1,1,-1
 37 0 l 1,2,-1
 48 72 l 1,3,-1
 286 72 l 1,4,-1
 303 184 l 1,5,-1
 68 184 l 1,6,-1
 129 573 l 1,7,-1
 203 573 l 1,8,-1
 154 258 l 1,9,-1
 315 258 l 1,10,-1
 365 573 l 1,11,-1
 444 573 l 1,0,-1
322 799 m 1,12,-1
 95 666 l 1,13,-1
 141 604 l 1,14,-1
 368 737 l 1,15,-1
 322 799 l 1,12,-1
EndSplineSet
EndChar

StartChar: germandbls
Encoding: 223 223 143
Width: 669
GlyphClass: 2
Flags: W
HStem: 0 21G<31 109.206> 574 71<198 341>
LayerCount: 2
Fore
SplineSet
133 645 m 1,0,-1
 352 645 l 1,1,-1
 341 574 l 1,2,-1
 198 574 l 1,3,-1
 106 0 l 1,4,-1
 31 0 l 1,5,-1
 133 645 l 1,0,-1
307 75 m 1,6,-1
 313 113 l 1,7,-1
 238 113 l 1,8,-1
 219 0 l 1,9,-1
 535 1 l 1,10,-1
 571 232 l 1,11,-1
 344 287 l 1,12,-1
 358 376 l 1,13,-1
 520 376 l 1,14,-1
 506 287 l 1,15,-1
 582 287 l 1,16,-1
 608 451 l 1,17,-1
 291 451 l 1,18,-1
 253 215 l 1,19,-1
 482 160 l 1,20,-1
 469 75 l 1,21,-1
 307 75 l 1,6,-1
EndSplineSet
EndChar

StartChar: agrave
Encoding: 224 224 144
Width: 481
GlyphClass: 2
Flags: W
HStem: 0 74<134 296> 193 73<153 314> 379 72<118 344> 656 20G<132.032 180.519>
LayerCount: 2
Fore
SplineSet
326 266 m 1,0,-1
 344 379 l 1,1,-1
 106 379 l 1,2,-1
 118 451 l 1,3,-1
 435 451 l 1,4,-1
 364 0 l 1,5,-1
 48 0 l 1,6,-1
 90 266 l 1,7,-1
 326 266 l 1,0,-1
314 193 m 1,8,-1
 153 193 l 1,9,-1
 134 74 l 1,10,-1
 296 74 l 1,11,-1
 314 193 l 1,8,-1
153 676 m 1,12,-1
 336 543 l 1,13,-1
 271 481 l 1,14,-1
 88 614 l 1,15,-1
 153 676 l 1,12,-1
EndSplineSet
EndChar

StartChar: aacute
Encoding: 225 225 145
Width: 481
GlyphClass: 2
Flags: W
HStem: 0 74<134 296> 193 73<153 314> 379 72<118 344>
LayerCount: 2
Fore
SplineSet
326 266 m 1,0,-1
 344 379 l 1,1,-1
 106 379 l 1,2,-1
 118 451 l 1,3,-1
 435 451 l 1,4,-1
 364 0 l 1,5,-1
 48 0 l 1,6,-1
 90 266 l 1,7,-1
 326 266 l 1,0,-1
314 193 m 1,8,-1
 153 193 l 1,9,-1
 134 74 l 1,10,-1
 296 74 l 1,11,-1
 314 193 l 1,8,-1
302 676 m 1,12,-1
 76 543 l 1,13,-1
 122 481 l 1,14,-1
 348 614 l 1,15,-1
 302 676 l 1,12,-1
EndSplineSet
EndChar

StartChar: acircumflex
Encoding: 226 226 146
Width: 481
GlyphClass: 2
Flags: W
HStem: 0 74<134 296> 193 73<153 314> 379 72<118 344>
LayerCount: 2
Fore
SplineSet
326 266 m 1,0,-1
 344 379 l 1,1,-1
 106 379 l 1,2,-1
 118 451 l 1,3,-1
 435 451 l 1,4,-1
 364 0 l 1,5,-1
 48 0 l 1,6,-1
 90 266 l 1,7,-1
 326 266 l 1,0,-1
314 193 m 1,8,-1
 153 193 l 1,9,-1
 134 74 l 1,10,-1
 296 74 l 1,11,-1
 314 193 l 1,8,-1
241 680 m 1,12,-1
 357 541 l 1,13,-1
 294 487 l 1,14,-1
 224 580 l 1,15,-1
 126 487 l 1,16,-1
 79 541 l 1,17,-1
 241 680 l 1,12,-1
EndSplineSet
EndChar

StartChar: atilde
Encoding: 227 227 147
Width: 481
GlyphClass: 2
Flags: W
HStem: 0 74<134 296> 193 73<153 314> 379 72<118 344>
LayerCount: 2
Fore
SplineSet
179 633 m 1,0,-1
 259 633 l 1,1,-1
 246 546 l 1,2,-1
 449 546 l 1,3,-1
 472 693 l 1,4,-1
 410 693 l 1,5,-1
 396 610 l 1,6,-1
 321 610 l 1,7,-1
 334 693 l 1,8,-1
 129 693 l 1,9,-1
 105 546 l 1,10,-1
 165 546 l 1,11,-1
 179 633 l 1,0,-1
326 266 m 1,12,-1
 344 379 l 1,13,-1
 106 379 l 1,14,-1
 118 451 l 1,15,-1
 435 451 l 1,16,-1
 364 0 l 1,17,-1
 48 0 l 1,18,-1
 90 266 l 1,19,-1
 326 266 l 1,12,-1
314 193 m 1,20,-1
 153 193 l 1,21,-1
 134 74 l 1,22,-1
 296 74 l 1,23,-1
 314 193 l 1,20,-1
EndSplineSet
EndChar

StartChar: adieresis
Encoding: 228 228 148
Width: 481
GlyphClass: 2
Flags: W
HStem: 0 74<134 296> 193 73<153 314> 379 72<118 344>
LayerCount: 2
Fore
SplineSet
326 266 m 1,0,-1
 344 379 l 1,1,-1
 106 379 l 1,2,-1
 118 451 l 1,3,-1
 435 451 l 1,4,-1
 364 0 l 1,5,-1
 48 0 l 1,6,-1
 90 266 l 1,7,-1
 326 266 l 1,0,-1
314 193 m 1,8,-1
 153 193 l 1,9,-1
 134 74 l 1,10,-1
 296 74 l 1,11,-1
 314 193 l 1,8,-1
92 676 m 1,12,-1
 72 543 l 1,13,-1
 147 543 l 1,14,-1
 168 676 l 1,15,-1
 92 676 l 1,12,-1
276 676 m 1,16,-1
 256 543 l 1,17,-1
 332 543 l 1,18,-1
 352 676 l 1,19,-1
 276 676 l 1,16,-1
EndSplineSet
EndChar

StartChar: aring
Encoding: 229 229 149
Width: 481
GlyphClass: 2
Flags: W
HStem: 0 74<134 296> 193 73<153 314> 379 72<118 344> 520 43<133 210> 684 45<152 228>
LayerCount: 2
Fore
SplineSet
326 266 m 1,0,-1
 344 379 l 1,1,-1
 106 379 l 1,2,-1
 118 451 l 1,3,-1
 435 451 l 1,4,-1
 364 0 l 1,5,-1
 48 0 l 1,6,-1
 90 266 l 1,7,-1
 326 266 l 1,0,-1
314 193 m 1,8,-1
 153 193 l 1,9,-1
 134 74 l 1,10,-1
 296 74 l 1,11,-1
 314 193 l 1,8,-1
68 520 m 1,12,-1
 100 729 l 1,13,-1
 291 729 l 1,14,-1
 258 520 l 1,15,-1
 68 520 l 1,12,-1
228 685 m 1,16,-1
 152 684 l 1,17,-1
 133 563 l 1,18,-1
 210 563 l 1,19,-1
 228 685 l 1,16,-1
EndSplineSet
EndChar

StartChar: ae
Encoding: 230 230 150
Width: 727
GlyphClass: 2
Flags: W
HStem: 0 72<134 296 383 609> 164 74<410 571> 213 74<156 317> 379 72<118 344 431 593>
LayerCount: 2
Fore
SplineSet
94 287 m 1,0,-1
 330 287 l 1,1,-1
 344 379 l 1,2,-1
 106 379 l 1,3,-1
 118 451 l 1,4,-1
 679 451 l 1,5,-1
 633 164 l 1,6,-1
 397 164 l 1,7,-1
 383 72 l 1,8,-1
 621 72 l 1,9,-1
 609 0 l 1,10,-1
 48 0 l 1,11,-1
 94 287 l 1,0,-1
571 238 m 1,12,-1
 593 377 l 1,13,-1
 431 377 l 1,14,-1
 410 238 l 1,15,-1
 571 238 l 1,12,-1
296 74 m 1,16,-1
 317 213 l 1,17,-1
 156 213 l 1,18,-1
 134 74 l 1,19,-1
 296 74 l 1,16,-1
EndSplineSet
EndChar

StartChar: ccedilla
Encoding: 231 231 151
Width: 481
GlyphClass: 2
Flags: W
HStem: 0 72<152 225 302 370> 376 75<200 361>
LayerCount: 2
Fore
SplineSet
145 -174 m 1,0,-1
 225 0 l 1,1,-1
 60 0 l 1,2,-1
 131 451 l 1,3,-1
 449 451 l 1,4,-1
 423 287 l 1,5,-1
 347 287 l 1,6,-1
 361 376 l 1,7,-1
 200 376 l 1,8,-1
 152 72 l 1,9,-1
 381 72 l 1,10,-1
 370 0 l 1,11,-1
 302 0 l 1,12,-1
 231 -174 l 1,13,-1
 145 -174 l 1,0,-1
EndSplineSet
EndChar

StartChar: egrave
Encoding: 232 232 152
Width: 481
GlyphClass: 2
Flags: W
HStem: 0 72<137 364> 184 74<167 329> 377 74<185 347> 656 20G<132.032 180.519>
LayerCount: 2
Fore
SplineSet
156 184 m 1,0,-1
 137 72 l 1,1,-1
 375 72 l 1,2,-1
 364 0 l 1,3,-1
 46 0 l 1,4,-1
 118 451 l 1,5,-1
 433 451 l 1,6,-1
 391 184 l 1,7,-1
 156 184 l 1,0,-1
167 258 m 1,8,-1
 329 258 l 1,9,-1
 347 377 l 1,10,-1
 185 377 l 1,11,-1
 167 258 l 1,8,-1
153 676 m 1,12,-1
 336 543 l 1,13,-1
 271 481 l 1,14,-1
 88 614 l 1,15,-1
 153 676 l 1,12,-1
EndSplineSet
EndChar

StartChar: eacute
Encoding: 233 233 153
Width: 481
GlyphClass: 2
Flags: W
HStem: 0 72<137 364> 184 74<167 329> 377 74<185 347>
LayerCount: 2
Fore
SplineSet
156 184 m 1,0,-1
 137 72 l 1,1,-1
 375 72 l 1,2,-1
 364 0 l 1,3,-1
 46 0 l 1,4,-1
 118 451 l 1,5,-1
 433 451 l 1,6,-1
 391 184 l 1,7,-1
 156 184 l 1,0,-1
167 258 m 1,8,-1
 329 258 l 1,9,-1
 347 377 l 1,10,-1
 185 377 l 1,11,-1
 167 258 l 1,8,-1
302 676 m 1,12,-1
 76 543 l 1,13,-1
 122 481 l 1,14,-1
 348 614 l 1,15,-1
 302 676 l 1,12,-1
EndSplineSet
EndChar

StartChar: ecircumflex
Encoding: 234 234 154
Width: 481
GlyphClass: 2
Flags: W
HStem: 0 72<137 364> 184 74<167 329> 377 74<185 347>
LayerCount: 2
Fore
SplineSet
156 184 m 1,0,-1
 137 72 l 1,1,-1
 375 72 l 1,2,-1
 364 0 l 1,3,-1
 46 0 l 1,4,-1
 118 451 l 1,5,-1
 433 451 l 1,6,-1
 391 184 l 1,7,-1
 156 184 l 1,0,-1
167 258 m 1,8,-1
 329 258 l 1,9,-1
 347 377 l 1,10,-1
 185 377 l 1,11,-1
 167 258 l 1,8,-1
241 680 m 1,12,-1
 357 541 l 1,13,-1
 294 487 l 1,14,-1
 224 580 l 1,15,-1
 126 487 l 1,16,-1
 79 541 l 1,17,-1
 241 680 l 1,12,-1
EndSplineSet
EndChar

StartChar: edieresis
Encoding: 235 235 155
Width: 481
GlyphClass: 2
Flags: W
HStem: 0 72<137 364> 184 74<167 329> 377 74<185 347>
LayerCount: 2
Fore
SplineSet
156 184 m 1,0,-1
 137 72 l 1,1,-1
 375 72 l 1,2,-1
 364 0 l 1,3,-1
 46 0 l 1,4,-1
 118 451 l 1,5,-1
 433 451 l 1,6,-1
 391 184 l 1,7,-1
 156 184 l 1,0,-1
167 258 m 1,8,-1
 329 258 l 1,9,-1
 347 377 l 1,10,-1
 185 377 l 1,11,-1
 167 258 l 1,8,-1
92 676 m 1,12,-1
 72 543 l 1,13,-1
 147 543 l 1,14,-1
 168 676 l 1,15,-1
 92 676 l 1,12,-1
276 676 m 1,16,-1
 256 543 l 1,17,-1
 332 543 l 1,18,-1
 352 676 l 1,19,-1
 276 676 l 1,16,-1
EndSplineSet
EndChar

StartChar: igrave
Encoding: 236 236 156
Width: 239
GlyphClass: 2
Flags: W
HStem: 656 20G<39.3548 87.6692>
VStem: -4 248
LayerCount: 2
Fore
SplineSet
118 450 m 1,0,-1
 46 0 l 1,1,-1
 122 0 l 1,2,-1
 194 451 l 1,3,-1
 118 450 l 1,0,-1
60 676 m 1,4,-1
 244 543 l 1,5,-1
 179 481 l 1,6,-1
 -4 614 l 1,7,-1
 60 676 l 1,4,-1
EndSplineSet
EndChar

StartChar: iacute
Encoding: 237 237 157
Width: 239
GlyphClass: 2
Flags: W
LayerCount: 2
Fore
SplineSet
118 450 m 1,0,-1
 46 0 l 1,1,-1
 122 0 l 1,2,-1
 194 451 l 1,3,-1
 118 450 l 1,0,-1
210 676 m 1,4,-1
 -16 543 l 1,5,-1
 30 481 l 1,6,-1
 256 614 l 1,7,-1
 210 676 l 1,4,-1
EndSplineSet
EndChar

StartChar: icircumflex
Encoding: 238 238 158
Width: 239
GlyphClass: 2
Flags: W
VStem: -24 279
LayerCount: 2
Fore
SplineSet
118 450 m 1,0,-1
 46 0 l 1,1,-1
 122 0 l 1,2,-1
 194 451 l 1,3,-1
 118 450 l 1,0,-1
138 680 m 1,4,-1
 255 541 l 1,5,-1
 191 487 l 1,6,-1
 122 580 l 1,7,-1
 24 487 l 1,8,-1
 -24 541 l 1,9,-1
 138 680 l 1,4,-1
EndSplineSet
EndChar

StartChar: idieresis
Encoding: 239 239 159
Width: 239
GlyphClass: 2
Flags: W
LayerCount: 2
Fore
SplineSet
118 450 m 1,0,-1
 46 0 l 1,1,-1
 122 0 l 1,2,-1
 194 451 l 1,3,-1
 118 450 l 1,0,-1
0 676 m 1,4,-1
 -20 543 l 1,5,-1
 55 543 l 1,6,-1
 76 676 l 1,7,-1
 0 676 l 1,4,-1
184 676 m 1,8,-1
 164 543 l 1,9,-1
 240 543 l 1,10,-1
 260 676 l 1,11,-1
 184 676 l 1,8,-1
EndSplineSet
EndChar

StartChar: ntilde
Encoding: 241 241 160
Width: 481
GlyphClass: 2
Flags: W
LayerCount: 2
Fore
SplineSet
178 623 m 1,0,-1
 258 623 l 1,1,-1
 245 536 l 1,2,-1
 447 536 l 1,3,-1
 471 683 l 1,4,-1
 409 683 l 1,5,-1
 395 600 l 1,6,-1
 319 600 l 1,7,-1
 333 683 l 1,8,-1
 128 683 l 1,9,-1
 104 536 l 1,10,-1
 164 536 l 1,11,-1
 178 623 l 1,0,-1
364 0 m 1,12,-1
 435 451 l 1,13,-1
 118 451 l 1,14,-1
 46 0 l 1,15,-1
 122 0 l 1,16,-1
 182 379 l 1,17,-1
 344 379 l 1,18,-1
 284 0 l 1,19,-1
 364 0 l 1,12,-1
EndSplineSet
EndChar

StartChar: ograve
Encoding: 242 242 161
Width: 481
GlyphClass: 2
Flags: W
HStem: 0 72<137 299> 376 75<185 347> 656 20G<132.032 180.519>
LayerCount: 2
Fore
SplineSet
46 0 m 1,0,-1
 118 451 l 1,1,-1
 435 451 l 1,2,-1
 364 0 l 1,3,-1
 46 0 l 1,0,-1
347 377 m 1,4,-1
 185 376 l 1,5,-1
 137 72 l 1,6,-1
 299 72 l 1,7,-1
 347 377 l 1,4,-1
153 676 m 1,8,-1
 336 543 l 1,9,-1
 271 481 l 1,10,-1
 88 614 l 1,11,-1
 153 676 l 1,8,-1
EndSplineSet
EndChar

StartChar: oacute
Encoding: 243 243 162
Width: 481
GlyphClass: 2
Flags: W
HStem: 0 72<137 299> 376 75<185 347>
LayerCount: 2
Fore
SplineSet
46 0 m 1,0,-1
 118 451 l 1,1,-1
 435 451 l 1,2,-1
 364 0 l 1,3,-1
 46 0 l 1,0,-1
347 377 m 1,4,-1
 185 376 l 1,5,-1
 137 72 l 1,6,-1
 299 72 l 1,7,-1
 347 377 l 1,4,-1
302 676 m 1,8,-1
 76 543 l 1,9,-1
 122 481 l 1,10,-1
 348 614 l 1,11,-1
 302 676 l 1,8,-1
EndSplineSet
EndChar

StartChar: ocircumflex
Encoding: 244 244 163
Width: 481
GlyphClass: 2
Flags: W
HStem: 0 72<137 299> 376 75<185 347>
LayerCount: 2
Fore
SplineSet
46 0 m 1,0,-1
 118 451 l 1,1,-1
 435 451 l 1,2,-1
 364 0 l 1,3,-1
 46 0 l 1,0,-1
347 377 m 1,4,-1
 185 376 l 1,5,-1
 137 72 l 1,6,-1
 299 72 l 1,7,-1
 347 377 l 1,4,-1
241 680 m 1,8,-1
 357 541 l 1,9,-1
 294 487 l 1,10,-1
 224 580 l 1,11,-1
 126 487 l 1,12,-1
 79 541 l 1,13,-1
 241 680 l 1,8,-1
EndSplineSet
EndChar

StartChar: otilde
Encoding: 245 245 164
Width: 481
GlyphClass: 2
Flags: W
HStem: 0 72<137 299> 376 75<185 347>
LayerCount: 2
Fore
SplineSet
178 623 m 1,0,-1
 258 623 l 1,1,-1
 245 536 l 1,2,-1
 447 536 l 1,3,-1
 471 683 l 1,4,-1
 409 683 l 1,5,-1
 395 600 l 1,6,-1
 319 600 l 1,7,-1
 333 683 l 1,8,-1
 128 683 l 1,9,-1
 104 536 l 1,10,-1
 164 536 l 1,11,-1
 178 623 l 1,0,-1
46 0 m 1,12,-1
 118 451 l 1,13,-1
 435 451 l 1,14,-1
 364 0 l 1,15,-1
 46 0 l 1,12,-1
347 377 m 1,16,-1
 185 376 l 1,17,-1
 137 72 l 1,18,-1
 299 72 l 1,19,-1
 347 377 l 1,16,-1
EndSplineSet
EndChar

StartChar: odieresis
Encoding: 246 246 165
Width: 481
GlyphClass: 2
Flags: W
HStem: 0 72<137 299> 376 75<185 347>
LayerCount: 2
Fore
SplineSet
46 0 m 1,0,-1
 118 451 l 1,1,-1
 435 451 l 1,2,-1
 364 0 l 1,3,-1
 46 0 l 1,0,-1
347 377 m 1,4,-1
 185 376 l 1,5,-1
 137 72 l 1,6,-1
 299 72 l 1,7,-1
 347 377 l 1,4,-1
92 676 m 1,8,-1
 72 543 l 1,9,-1
 147 543 l 1,10,-1
 168 676 l 1,11,-1
 92 676 l 1,8,-1
276 676 m 1,12,-1
 256 543 l 1,13,-1
 332 543 l 1,14,-1
 352 676 l 1,15,-1
 276 676 l 1,12,-1
EndSplineSet
EndChar

StartChar: divide
Encoding: 247 247 166
Width: 512
GlyphClass: 2
Flags: W
LayerCount: 2
Fore
SplineSet
201 102 m 1,0,-1
 184 0 l 1,1,-1
 260 0 l 1,2,-1
 276 102 l 1,3,-1
 201 102 l 1,0,-1
256 451 m 1,4,-1
 240 348 l 1,5,-1
 315 348 l 1,6,-1
 332 451 l 1,7,-1
 256 451 l 1,4,-1
466 195 m 1,8,-1
 477 266 l 1,9,-1
 47 266 l 1,10,-1
 36 195 l 1,11,-1
 466 195 l 1,8,-1
EndSplineSet
EndChar

StartChar: oslash
Encoding: 248 248 167
Width: 481
GlyphClass: 2
Flags: W
HStem: 0 72<210 298> 376 75<184 265> 553 20G<341.475 426>
LayerCount: 2
Fore
SplineSet
45 0 m 1,0,-1
 116 451 l 1,1,-1
 298 451 l 1,2,-1
 350 573 l 1,3,-1
 426 573 l 1,4,-1
 374 451 l 1,5,-1
 433 451 l 1,6,-1
 362 0 l 1,7,-1
 179 0 l 1,8,-1
 135 -102 l 1,9,-1
 59 -102 l 1,10,-1
 103 0 l 1,11,-1
 45 0 l 1,0,-1
265 376 m 1,12,-1
 184 376 l 1,13,-1
 137 78 l 1,14,-1
 265 376 l 1,12,-1
346 376 m 1,15,-1
 341 376 l 1,16,-1
 210 72 l 1,17,-1
 298 72 l 1,18,-1
 346 376 l 1,15,-1
EndSplineSet
EndChar

StartChar: ugrave
Encoding: 249 249 168
Width: 481
GlyphClass: 2
Flags: W
HStem: 0 72<133 295> 431 20G<114.807 194 351.834 435> 431 20G<114.807 194 351.834 435> 656 20G<132.032 180.519>
LayerCount: 2
Fore
SplineSet
435 451 m 1,0,-1
 364 0 l 1,1,-1
 46 0 l 1,2,-1
 118 451 l 1,3,-1
 194 451 l 1,4,-1
 133 72 l 1,5,-1
 295 72 l 1,6,-1
 355 451 l 1,7,-1
 435 451 l 1,0,-1
153 676 m 1,8,-1
 336 543 l 1,9,-1
 271 481 l 1,10,-1
 88 614 l 1,11,-1
 153 676 l 1,8,-1
EndSplineSet
EndChar

StartChar: uacute
Encoding: 250 250 169
Width: 481
GlyphClass: 2
Flags: W
HStem: 0 72<133 295> 431 20G<114.807 194 351.834 435> 431 20G<114.807 194 351.834 435>
LayerCount: 2
Fore
SplineSet
435 451 m 1,0,-1
 364 0 l 1,1,-1
 46 0 l 1,2,-1
 118 451 l 1,3,-1
 194 451 l 1,4,-1
 133 72 l 1,5,-1
 295 72 l 1,6,-1
 355 451 l 1,7,-1
 435 451 l 1,0,-1
302 676 m 1,8,-1
 76 543 l 1,9,-1
 122 481 l 1,10,-1
 348 614 l 1,11,-1
 302 676 l 1,8,-1
EndSplineSet
EndChar

StartChar: ucircumflex
Encoding: 251 251 170
Width: 481
GlyphClass: 2
Flags: W
HStem: 0 72<133 295> 431 20G<114.807 194 351.834 435> 431 20G<114.807 194 351.834 435>
LayerCount: 2
Fore
SplineSet
435 451 m 1,0,-1
 364 0 l 1,1,-1
 46 0 l 1,2,-1
 118 451 l 1,3,-1
 194 451 l 1,4,-1
 133 72 l 1,5,-1
 295 72 l 1,6,-1
 355 451 l 1,7,-1
 435 451 l 1,0,-1
241 680 m 1,8,-1
 357 541 l 1,9,-1
 294 487 l 1,10,-1
 224 580 l 1,11,-1
 126 487 l 1,12,-1
 79 541 l 1,13,-1
 241 680 l 1,8,-1
EndSplineSet
EndChar

StartChar: udieresis
Encoding: 252 252 171
Width: 481
GlyphClass: 2
Flags: W
HStem: 0 72<133 295> 431 20G<114.807 194 351.834 435> 431 20G<114.807 194 351.834 435>
LayerCount: 2
Fore
SplineSet
435 451 m 1,0,-1
 364 0 l 1,1,-1
 46 0 l 1,2,-1
 118 451 l 1,3,-1
 194 451 l 1,4,-1
 133 72 l 1,5,-1
 295 72 l 1,6,-1
 355 451 l 1,7,-1
 435 451 l 1,0,-1
92 676 m 1,8,-1
 72 543 l 1,9,-1
 147 543 l 1,10,-1
 168 676 l 1,11,-1
 92 676 l 1,8,-1
276 676 m 1,12,-1
 256 543 l 1,13,-1
 332 543 l 1,14,-1
 352 676 l 1,15,-1
 276 676 l 1,12,-1
EndSplineSet
EndChar

StartChar: yacute
Encoding: 253 253 172
Width: 481
GlyphClass: 2
Flags: W
HStem: -184 71<43 281> 0 74<148 298> 431 20G<130.807 208 366.817 450> 431 20G<130.807 208 366.817 450>
LayerCount: 2
Fore
SplineSet
305 696 m 1,0,-1
 80 563 l 1,1,-1
 125 502 l 1,2,-1
 351 635 l 1,3,-1
 305 696 l 1,0,-1
450 451 m 1,4,-1
 349 -184 l 1,5,-1
 32 -184 l 1,6,-1
 43 -113 l 1,7,-1
 281 -113 l 1,8,-1
 298 0 l 1,9,-1
 62 0 l 1,10,-1
 134 451 l 1,11,-1
 208 451 l 1,12,-1
 148 74 l 1,13,-1
 310 74 l 1,14,-1
 370 451 l 1,15,-1
 450 451 l 1,4,-1
EndSplineSet
EndChar

StartChar: ydieresis
Encoding: 255 255 173
Width: 481
GlyphClass: 2
Flags: W
HStem: -184 71<43 281> 0 74<148 298> 431 20G<130.807 208 366.817 450> 431 20G<130.807 208 366.817 450>
LayerCount: 2
Fore
SplineSet
450 451 m 1,0,-1
 349 -184 l 1,1,-1
 32 -184 l 1,2,-1
 43 -113 l 1,3,-1
 281 -113 l 1,4,-1
 298 0 l 1,5,-1
 62 0 l 1,6,-1
 134 451 l 1,7,-1
 208 451 l 1,8,-1
 148 74 l 1,9,-1
 310 74 l 1,10,-1
 370 451 l 1,11,-1
 450 451 l 1,0,-1
92 676 m 1,12,-1
 72 543 l 1,13,-1
 147 543 l 1,14,-1
 168 676 l 1,15,-1
 92 676 l 1,12,-1
276 676 m 1,16,-1
 256 543 l 1,17,-1
 332 543 l 1,18,-1
 352 676 l 1,19,-1
 276 676 l 1,16,-1
EndSplineSet
EndChar

StartChar: dotlessi
Encoding: 305 305 174
Width: 239
GlyphClass: 2
Flags: W
LayerCount: 2
Fore
SplineSet
118 450 m 1,0,-1
 46 0 l 1,1,-1
 122 0 l 1,2,-1
 194 451 l 1,3,-1
 118 450 l 1,0,-1
EndSplineSet
EndChar

StartChar: OE
Encoding: 338 338 175
Width: 721
GlyphClass: 2
Flags: W
HStem: 0 78<125 287 367 595> 306 72<414 643> 502 72<191 353 433 674>
LayerCount: 2
Fore
SplineSet
125 78 m 1,0,-1
 287 78 l 1,1,-1
 353 501 l 1,2,-1
 191 501 l 1,3,-1
 125 78 l 1,0,-1
607 78 m 1,4,-1
 595 0 l 1,5,-1
 37 0 l 1,6,-1
 127 573 l 1,7,8
 308 573 308 573 685 574 c 1,9,-1
 674 502 l 1,10,-1
 433 502 l 1,11,-1
 414 378 l 1,12,-1
 654 378 l 1,13,-1
 643 306 l 1,14,-1
 402 306 l 1,15,-1
 367 78 l 1,16,-1
 607 78 l 1,4,-1
EndSplineSet
EndChar

StartChar: oe
Encoding: 339 339 176
Width: 706
GlyphClass: 2
Flags: W
HStem: 0 72<137 299 362 589> 184 74<392 554> 377 74<185 347 411 572>
LayerCount: 2
Fore
SplineSet
46 0 m 1,0,-1
 118 451 l 1,1,-1
 658 451 l 1,2,-1
 616 184 l 1,3,-1
 381 184 l 1,4,-1
 362 72 l 1,5,-1
 600 72 l 1,6,-1
 589 0 l 1,7,-1
 46 0 l 1,0,-1
554 258 m 1,8,-1
 572 377 l 1,9,-1
 411 377 l 1,10,-1
 392 258 l 1,11,-1
 554 258 l 1,8,-1
299 72 m 1,12,-1
 347 377 l 1,13,-1
 185 376 l 1,14,-1
 137 72 l 1,15,-1
 299 72 l 1,12,-1
EndSplineSet
EndChar

StartChar: Scaron
Encoding: 352 352 177
Width: 481
GlyphClass: 2
Flags: W
LayerCount: 2
Fore
SplineSet
124 75 m 1,0,-1
 138 164 l 1,1,-1
 62 164 l 1,2,-1
 37 0 l 1,3,-1
 352 1 l 1,4,-1
 390 243 l 1,5,-1
 176 379 l 1,6,-1
 196 499 l 1,7,-1
 357 499 l 1,8,-1
 343 410 l 1,9,-1
 419 410 l 1,10,-1
 444 573 l 1,11,-1
 127 573 l 1,12,-1
 85 307 l 1,13,-1
 301 170 l 1,14,-1
 286 75 l 1,15,-1
 124 75 l 1,0,-1
229 610 m 1,16,-1
 113 750 l 1,17,-1
 176 803 l 1,18,-1
 246 711 l 1,19,-1
 344 803 l 1,20,-1
 391 750 l 1,21,-1
 229 610 l 1,16,-1
EndSplineSet
EndChar

StartChar: scaron
Encoding: 353 353 178
Width: 481
GlyphClass: 2
Flags: W
LayerCount: 2
Fore
SplineSet
134 75 m 1,0,-1
 140 113 l 1,1,-1
 65 113 l 1,2,-1
 46 0 l 1,3,-1
 361 1 l 1,4,-1
 398 232 l 1,5,-1
 172 287 l 1,6,-1
 185 376 l 1,7,-1
 347 376 l 1,8,-1
 334 287 l 1,9,-1
 410 287 l 1,10,-1
 435 451 l 1,11,-1
 118 451 l 1,12,-1
 80 215 l 1,13,-1
 309 160 l 1,14,-1
 296 75 l 1,15,-1
 134 75 l 1,0,-1
210 487 m 1,16,-1
 93 627 l 1,17,-1
 157 680 l 1,18,-1
 226 588 l 1,19,-1
 325 680 l 1,20,-1
 372 627 l 1,21,-1
 210 487 l 1,16,-1
EndSplineSet
EndChar

StartChar: Ydieresis
Encoding: 376 376 179
Width: 481
GlyphClass: 2
Flags: W
HStem: 0 72<48 286> 184 74<154 303> 553 20G<125.864 203 361.825 444>
LayerCount: 2
Fore
SplineSet
444 573 m 1,0,-1
 354 0 l 1,1,-1
 37 0 l 1,2,-1
 48 72 l 1,3,-1
 286 72 l 1,4,-1
 303 184 l 1,5,-1
 68 184 l 1,6,-1
 129 573 l 1,7,-1
 203 573 l 1,8,-1
 154 258 l 1,9,-1
 315 258 l 1,10,-1
 365 573 l 1,11,-1
 444 573 l 1,0,-1
103 748 m 1,12,-1
 83 614 l 1,13,-1
 159 614 l 1,14,-1
 179 748 l 1,15,-1
 103 748 l 1,12,-1
288 748 m 1,16,-1
 267 614 l 1,17,-1
 343 614 l 1,18,-1
 364 748 l 1,19,-1
 288 748 l 1,16,-1
EndSplineSet
EndChar

StartChar: Zcaron
Encoding: 381 381 180
Width: 481
GlyphClass: 2
Flags: W
HStem: 0 72<148 346> 499 74<127 353>
LayerCount: 2
Fore
SplineSet
148 72 m 1,0,-1
 357 72 l 1,1,-1
 346 0 l 1,2,-1
 37 0 l 1,3,-1
 48 72 l 1,4,-1
 353 499 l 1,5,-1
 116 499 l 1,6,-1
 127 573 l 1,7,-1
 444 573 l 1,8,-1
 432 496 l 1,9,-1
 148 72 l 1,0,-1
228 600 m 1,10,-1
 111 739 l 1,11,-1
 174 793 l 1,12,-1
 244 700 l 1,13,-1
 342 793 l 1,14,-1
 389 739 l 1,15,-1
 228 600 l 1,10,-1
EndSplineSet
EndChar

StartChar: zcaron
Encoding: 382 382 181
Width: 481
GlyphClass: 2
Flags: W
HStem: 0 72<158 355> 376 75<118 343>
LayerCount: 2
Fore
SplineSet
158 72 m 1,0,-1
 367 72 l 1,1,-1
 355 0 l 1,2,-1
 46 0 l 1,3,-1
 57 72 l 1,4,-1
 343 376 l 1,5,-1
 105 376 l 1,6,-1
 118 451 l 1,7,-1
 435 451 l 1,8,-1
 423 373 l 1,9,-1
 158 72 l 1,0,-1
210 487 m 1,10,-1
 93 627 l 1,11,-1
 157 680 l 1,12,-1
 226 588 l 1,13,-1
 325 680 l 1,14,-1
 372 627 l 1,15,-1
 210 487 l 1,10,-1
EndSplineSet
EndChar

StartChar: florin
Encoding: 402 402 182
Width: 481
GlyphClass: 2
Flags: W
HStem: 184 71<102 189 276 409> 380 71<296 439>
LayerCount: 2
Fore
SplineSet
102 255 m 1,0,-1
 201 255 l 1,1,-1
 231 451 l 1,2,-1
 451 451 l 1,3,-1
 439 380 l 1,4,-1
 296 380 l 1,5,-1
 276 255 l 1,6,-1
 420 255 l 1,7,-1
 409 184 l 1,8,-1
 265 184 l 1,9,-1
 205 -195 l 1,10,-1
 129 -195 l 1,11,-1
 189 184 l 1,12,-1
 91 184 l 1,13,-1
 102 255 l 1,0,-1
EndSplineSet
EndChar

StartChar: circumflex
Encoding: 710 710 183
Width: 481
GlyphClass: 2
Flags: W
HStem: 487 193
VStem: 79 278
LayerCount: 2
Fore
SplineSet
241 680 m 1,0,-1
 357 541 l 1,1,-1
 294 487 l 1,2,-1
 224 580 l 1,3,-1
 126 487 l 1,4,-1
 79 541 l 1,5,-1
 241 680 l 1,0,-1
EndSplineSet
EndChar

StartChar: breve
Encoding: 728 728 184
Width: 481
GlyphClass: 2
Flags: W
HStem: 487 193
VStem: 93 279
LayerCount: 2
Fore
SplineSet
210 487 m 1,0,-1
 93 627 l 1,1,-1
 157 680 l 1,2,-1
 226 588 l 1,3,-1
 325 680 l 1,4,-1
 372 627 l 1,5,-1
 210 487 l 1,0,-1
EndSplineSet
EndChar

StartChar: ring
Encoding: 730 730 185
Width: 481
GlyphClass: 2
Flags: W
HStem: 520 43<132 209> 684 45<152 228>
VStem: 68 223
LayerCount: 2
Fore
SplineSet
68 520 m 1,0,-1
 100 729 l 1,1,-1
 291 729 l 1,2,-1
 258 520 l 1,3,-1
 68 520 l 1,0,-1
228 685 m 1,4,-1
 152 684 l 1,5,-1
 132 563 l 1,6,-1
 209 563 l 1,7,-1
 228 685 l 1,4,-1
EndSplineSet
EndChar

StartChar: endash
Encoding: 8211 8211 186
Width: 512
GlyphClass: 2
Flags: W
HStem: 205 71
LayerCount: 2
Fore
SplineSet
506 205 m 1,0,-1
 518 276 l 1,1,-1
 6 276 l 1,2,-1
 -6 205 l 1,3,-1
 506 205 l 1,0,-1
EndSplineSet
EndChar

StartChar: emdash
Encoding: 8212 8212 187
Width: 1024
GlyphClass: 2
Flags: W
HStem: 205 71
LayerCount: 2
Fore
SplineSet
1018 205 m 1,0,-1
 1030 276 l 1,1,-1
 6 276 l 1,2,-1
 -6 205 l 1,3,-1
 1018 205 l 1,0,-1
EndSplineSet
EndChar

StartChar: quoteleft
Encoding: 8216 8216 188
Width: 137
GlyphClass: 2
Flags: W
HStem: 430 205
VStem: 4 170
LayerCount: 2
Fore
SplineSet
4 430 m 1,0,-1
 98 635 l 1,1,-1
 174 635 l 1,2,-1
 90 430 l 1,3,-1
 4 430 l 1,0,-1
EndSplineSet
EndChar

StartChar: quoteright
Encoding: 8217 8217 189
Width: 126
GlyphClass: 2
Flags: W
HStem: 430 205<37 39>
VStem: -37 160
LayerCount: 2
Fore
SplineSet
-37 430 m 1,0,-1
 37 635 l 1,1,-1
 123 635 l 1,2,-1
 39 430 l 1,3,-1
 -37 430 l 1,0,-1
EndSplineSet
EndChar

StartChar: quotesinglbase
Encoding: 8218 8218 190
Width: 126
GlyphClass: 2
Flags: W
HStem: -82 205<37 39>
VStem: -37 160
LayerCount: 2
Fore
SplineSet
-37 -82 m 1,0,-1
 37 123 l 1,1,-1
 123 123 l 1,2,-1
 39 -82 l 1,3,-1
 -37 -82 l 1,0,-1
EndSplineSet
EndChar

StartChar: quotedblleft
Encoding: 8220 8220 191
Width: 260
GlyphClass: 2
Flags: W
HStem: 430 205
VStem: 4 293
LayerCount: 2
Fore
SplineSet
127 430 m 1,0,-1
 221 635 l 1,1,-1
 297 635 l 1,2,-1
 213 430 l 1,3,-1
 127 430 l 1,0,-1
4 430 m 1,4,-1
 98 635 l 1,5,-1
 174 635 l 1,6,-1
 90 430 l 1,7,-1
 4 430 l 1,4,-1
EndSplineSet
EndChar

StartChar: quotedblright
Encoding: 8221 8221 192
Width: 249
GlyphClass: 2
Flags: W
HStem: 430 205<37 39 160 162>
VStem: -37 283
LayerCount: 2
Fore
SplineSet
86 430 m 1,0,-1
 160 635 l 1,1,-1
 246 635 l 1,2,-1
 162 430 l 1,3,-1
 86 430 l 1,0,-1
-37 430 m 1,4,-1
 37 635 l 1,5,-1
 123 635 l 1,6,-1
 39 430 l 1,7,-1
 -37 430 l 1,4,-1
EndSplineSet
EndChar

StartChar: quotedblbase
Encoding: 8222 8222 193
Width: 249
GlyphClass: 2
Flags: W
HStem: -82 205<37 39 160 162>
VStem: -37 283
LayerCount: 2
Fore
SplineSet
86 -82 m 1,0,-1
 160 123 l 1,1,-1
 246 123 l 1,2,-1
 162 -82 l 1,3,-1
 86 -82 l 1,0,-1
-37 -82 m 1,4,-1
 37 123 l 1,5,-1
 123 123 l 1,6,-1
 39 -82 l 1,7,-1
 -37 -82 l 1,4,-1
EndSplineSet
EndChar

StartChar: bullet
Encoding: 8226 8226 194
Width: 409
GlyphClass: 2
Flags: W
HStem: 205 246<122 288>
VStem: 83 244
LayerCount: 2
Fore
SplineSet
122 451 m 1,0,-1
 327 451 l 1,1,-1
 288 205 l 1,2,-1
 83 205 l 1,3,-1
 122 451 l 1,0,-1
EndSplineSet
EndChar

StartChar: guilsinglleft
Encoding: 8249 8249 195
Width: 389
GlyphClass: 2
Flags: W
VStem: 51 315
LayerCount: 2
Fore
SplineSet
51 236 m 1,0,-1
 319 467 l 1,1,-1
 366 410 l 1,2,-1
 167 236 l 1,3,-1
 310 61 l 1,4,-1
 246 4 l 1,5,-1
 51 236 l 1,0,-1
EndSplineSet
EndChar

StartChar: guilsinglright
Encoding: 8250 8250 196
Width: 389
GlyphClass: 2
Flags: W
LayerCount: 2
Fore
SplineSet
338 236 m 1,0,-1
 143 467 l 1,1,-1
 79 410 l 1,2,-1
 222 236 l 1,3,-1
 24 61 l 1,4,-1
 70 4 l 1,5,-1
 338 236 l 1,0,-1
EndSplineSet
EndChar

StartChar: fraction
Encoding: 8260 8260 197
Width: 481
GlyphClass: 2
Flags: W
LayerCount: 2
Fore
SplineSet
431 444 m 1,0,-1
 375 480 l 1,1,-1
 49 37 l 1,2,-1
 106 1 l 1,3,-1
 431 444 l 1,0,-1
EndSplineSet
EndChar

StartChar: trademark
Encoding: 8482 8482 198
Width: 716
GlyphClass: 2
Flags: W
HStem: 313 74<143 191> 510 74<44 87 175 222 374 439 519 582>
LayerCount: 2
Fore
SplineSet
488 313 m 1,0,-1
 409 313 l 1,1,-1
 439 510 l 1,2,-1
 374 510 l 1,3,-1
 343 313 l 1,4,-1
 267 313 l 1,5,-1
 310 584 l 1,6,-1
 673 584 l 1,7,-1
 630 313 l 1,8,-1
 551 313 l 1,9,-1
 582 510 l 1,10,-1
 519 510 l 1,11,-1
 488 313 l 1,0,-1
191 313 m 1,12,-1
 56 313 l 1,13,-1
 87 510 l 1,14,-1
 32 510 l 1,15,-1
 44 584 l 1,16,-1
 99 584 l 1,17,-1
 112 664 l 1,18,-1
 187 664 l 1,19,-1
 175 584 l 1,20,-1
 234 584 l 1,21,-1
 222 510 l 1,22,-1
 163 510 l 1,23,-1
 143 387 l 1,24,-1
 203 387 l 1,25,-1
 191 313 l 1,12,-1
EndSplineSet
EndChar

StartChar: minus
Encoding: 8722 8722 199
Width: 409
GlyphClass: 2
Flags: W
HStem: 205 71
LayerCount: 2
Fore
SplineSet
388 205 m 1,0,-1
 400 276 l 1,1,-1
 22 276 l 1,2,-1
 9 205 l 1,3,-1
 388 205 l 1,0,-1
EndSplineSet
EndChar

StartChar: infinity
Encoding: 8734 8734 200
Width: 512
GlyphClass: 2
Flags: W
HStem: 77 81<93 204 285 390> 318 76<119 229 310 416>
LayerCount: 2
Fore
SplineSet
204 158 m 1,0,-1
 229 318 l 1,1,-1
 119 318 l 1,2,-1
 93 158 l 1,3,-1
 204 158 l 1,0,-1
285 158 m 1,4,-1
 390 158 l 1,5,-1
 416 318 l 1,6,-1
 310 318 l 1,7,-1
 285 158 l 1,4,-1
5 77 m 1,8,-1
 56 394 l 1,9,-1
 507 394 l 1,10,-1
 455 77 l 1,11,-1
 5 77 l 1,8,-1
EndSplineSet
EndChar

StartChar: notequal
Encoding: 8800 8800 201
Width: 491
GlyphClass: 2
Flags: W
HStem: 82 72<22 133 268 451> 205 71<41 223 358 470>
LayerCount: 2
Fore
SplineSet
451 82 m 1,0,-1
 216 82 l 1,1,-1
 134 -30 l 1,2,-1
 77 6 l 1,3,-1
 133 82 l 1,4,-1
 10 82 l 1,5,-1
 22 154 l 1,6,-1
 185 154 l 1,7,-1
 223 205 l 1,8,-1
 30 205 l 1,9,-1
 41 276 l 1,10,-1
 275 276 l 1,11,-1
 357 388 l 1,12,-1
 415 352 l 1,13,-1
 358 276 l 1,14,-1
 481 276 l 1,15,-1
 470 205 l 1,16,-1
 306 205 l 1,17,-1
 268 154 l 1,18,-1
 462 154 l 1,19,-1
 451 82 l 1,0,-1
EndSplineSet
EndChar

StartChar: lessequal
Encoding: 8804 8804 202
Width: 389
GlyphClass: 2
Flags: W
LayerCount: 2
Fore
SplineSet
60 307 m 1,0,-1
 322 498 l 1,1,-1
 369 440 l 1,2,-1
 176 307 l 1,3,-1
 326 174 l 1,4,-1
 262 117 l 1,5,-1
 60 307 l 1,0,-1
325 0 m 1,6,-1
 336 72 l 1,7,-1
 -2 72 l 1,8,-1
 -13 0 l 1,9,-1
 325 0 l 1,6,-1
EndSplineSet
EndChar

StartChar: greaterequal
Encoding: 8805 8805 203
Width: 389
GlyphClass: 2
Flags: W
HStem: 0 72<-2 325>
LayerCount: 2
Fore
SplineSet
347 307 m 1,0,-1
 145 498 l 1,1,-1
 82 440 l 1,2,-1
 231 307 l 1,3,-1
 39 174 l 1,4,-1
 86 117 l 1,5,-1
 347 307 l 1,0,-1
-13 0 m 1,6,-1
 -2 72 l 1,7,-1
 336 72 l 1,8,-1
 325 0 l 1,9,-1
 -13 0 l 1,6,-1
EndSplineSet
EndChar

StartChar: fi
Encoding: 64257 64257 204
Width: 649
GlyphClass: 2
Flags: W
HStem: 0 21G<129 208.166> 379 71<102 189 276 409> 574 71<296 439>
LayerCount: 2
Fore
SplineSet
102 450 m 1,0,-1
 201 450 l 1,1,-1
 231 645 l 1,2,-1
 451 645 l 1,3,-1
 439 574 l 1,4,-1
 296 574 l 1,5,-1
 276 450 l 1,6,-1
 420 450 l 1,7,-1
 409 379 l 1,8,-1
 265 379 l 1,9,-1
 205 0 l 1,10,-1
 129 0 l 1,11,-1
 189 379 l 1,12,-1
 91 379 l 1,13,-1
 102 450 l 1,0,-1
509 450 m 1,14,-1
 438 0 l 1,15,-1
 514 0 l 1,16,-1
 585 451 l 1,17,-1
 509 450 l 1,14,-1
545 676 m 1,18,-1
 524 543 l 1,19,-1
 600 543 l 1,20,-1
 621 676 l 1,21,-1
 545 676 l 1,18,-1
EndSplineSet
EndChar

StartChar: fl
Encoding: 64258 64258 205
Width: 649
GlyphClass: 2
Flags: W
HStem: 0 21G<129 208.166> 379 71<102 189 276 409> 574 71<296 439>
LayerCount: 2
Fore
SplineSet
102 450 m 1,0,-1
 201 450 l 1,1,-1
 231 645 l 1,2,-1
 451 645 l 1,3,-1
 439 574 l 1,4,-1
 296 574 l 1,5,-1
 276 450 l 1,6,-1
 420 450 l 1,7,-1
 409 379 l 1,8,-1
 265 379 l 1,9,-1
 205 0 l 1,10,-1
 129 0 l 1,11,-1
 189 379 l 1,12,-1
 91 379 l 1,13,-1
 102 450 l 1,0,-1
545 676 m 1,14,-1
 438 0 l 1,15,-1
 514 0 l 1,16,-1
 621 676 l 1,17,-1
 545 676 l 1,14,-1
EndSplineSet
EndChar
